<svg width="401" height="111" viewBox="0 0 401 111" fill="none" xmlns="http://www.w3.org/2000/svg">
<g clip-path="url(#clip0_2578_3752)">
<path d="M75.4409 16.3931H85.4015V26.1699H75.4409V16.3931ZM75.4409 84.8306H85.4015V94.6074H75.4409V84.8306ZM65.4802 26.1699H75.4409V35.9467H65.4802V26.1699ZM65.4802 75.0538H75.4409V84.8306H65.4802V75.0538ZM55.5195 35.9467H65.4802V75.0538H55.5195V35.9467Z" fill="#25AAE1"/>
<path d="M115.281 16.3931H125.242V26.1699H115.281V16.3931ZM125.242 75.0538H135.203V84.8306H125.242V75.0538ZM115.281 84.8306H125.242V94.6074H115.281V84.8306ZM125.242 26.1699H135.203V35.9467H125.242V26.1699ZM135.203 35.9467H145.163V75.0538H135.203V35.9467Z" fill="#25AAE1"/>
<path fill-rule="evenodd" clip-rule="evenodd" d="M178.661 36.4855C179.288 35.347 179.601 33.9662 179.601 32.3432C179.601 30.7203 179.288 29.3395 178.661 28.201C178.039 27.0625 177.19 26.1953 176.114 25.5994C175.043 24.9986 173.839 24.6982 172.501 24.6982C171.154 24.6982 169.944 24.9986 168.873 25.5994C167.802 26.1953 166.956 27.0625 166.334 28.201C165.712 29.3395 165.401 30.7203 165.401 32.3432C165.401 33.9614 165.712 35.3397 166.334 36.4782C166.956 37.6167 167.802 38.4864 168.873 39.0871C169.944 39.6879 171.154 39.9882 172.501 39.9882C173.839 39.9882 175.043 39.6903 176.114 39.0944C177.19 38.4936 178.039 37.624 178.661 36.4855ZM175.87 29.6835C176.191 30.4053 176.351 31.2919 176.351 32.3432C176.351 33.3946 176.191 34.2811 175.87 35.003C175.554 35.7249 175.107 36.2723 174.53 36.6454C173.952 37.0184 173.276 37.2049 172.501 37.2049C171.726 37.2049 171.05 37.0184 170.472 36.6454C169.895 36.2723 169.446 35.7249 169.125 35.003C168.809 34.2811 168.651 33.3946 168.651 32.3432C168.651 31.2919 168.809 30.4053 169.125 29.6835C169.446 28.9616 169.895 28.4141 170.472 28.0411C171.05 27.6681 171.726 27.4816 172.501 27.4816C173.276 27.4816 173.952 27.6681 174.53 28.0411C175.107 28.4141 175.554 28.9616 175.87 29.6835Z" fill="#404041"/>
<path fill-rule="evenodd" clip-rule="evenodd" d="M185.729 24.9017V39.7848H188.935V34.9594H191.63C192.795 34.9594 193.787 34.7486 194.606 34.3271C195.43 33.9057 196.06 33.317 196.494 32.5612C196.928 31.8055 197.145 30.9334 197.145 29.9451C197.145 28.9568 196.931 28.0847 196.501 27.3289C196.077 26.5683 195.46 25.9748 194.65 25.5485C193.841 25.1173 192.861 24.9017 191.711 24.9017H185.729ZM188.935 32.4377H191.111C191.728 32.4377 192.237 32.3336 192.637 32.1252C193.041 31.9121 193.342 31.619 193.54 31.2459C193.742 30.868 193.843 30.4344 193.843 29.9451C193.843 29.4509 193.742 29.0197 193.54 28.6516C193.342 28.2785 193.041 27.9903 192.637 27.7868C192.232 27.5784 191.719 27.4743 191.097 27.4743H188.935V32.4377Z" fill="#404041"/>
<path d="M202.981 24.9017V39.7848H213.227V37.1904H206.186V33.6368H212.672V31.0424H206.186V27.4961H213.198V24.9017H202.981Z" fill="#404041"/>
<path d="M232.182 39.7848V24.9017H228.991V34.2618H228.858L222.313 24.9017H219.499V39.7848H222.705V30.4175H222.816L229.413 39.7848H232.182Z" fill="#404041"/>
<path d="M165.09 48.2996V50.894H169.732V63.1826H172.901V50.894H177.543V48.2996H165.09Z" fill="#404041"/>
<path d="M183.347 48.2996V63.1826H193.594V60.5883H186.553V57.0347H193.038V54.4403H186.553V50.894H193.564V48.2996H183.347Z" fill="#404041"/>
<path d="M210.001 53.5101H213.244C213.14 52.6478 212.904 51.8823 212.533 51.2137C212.168 50.5451 211.694 49.9807 211.112 49.5205C210.529 49.0554 209.861 48.7017 209.105 48.4595C208.355 48.2173 207.541 48.0961 206.662 48.0961C205.329 48.0961 204.13 48.3965 203.064 48.9973C201.998 49.5932 201.154 50.4604 200.532 51.5989C199.91 52.7374 199.599 54.1181 199.599 55.7411C199.599 57.3593 199.905 58.7376 200.517 59.8761C201.134 61.0146 201.973 61.8842 203.034 62.485C204.1 63.0858 205.31 63.3861 206.662 63.3861C207.635 63.3861 208.506 63.2432 209.276 62.9574C210.051 62.6667 210.717 62.2742 211.275 61.7801C211.837 61.2811 212.284 60.7167 212.615 60.0868C212.95 59.4522 213.16 58.7933 213.244 58.1102L210.001 58.0957C209.927 58.493 209.794 58.8466 209.601 59.1567C209.414 59.4667 209.177 59.7308 208.891 59.9488C208.604 60.162 208.276 60.3242 207.906 60.4357C207.541 60.5471 207.143 60.6028 206.714 60.6028C205.949 60.6028 205.275 60.4187 204.693 60.0505C204.11 59.6823 203.656 59.1373 203.33 58.4154C203.01 57.6936 202.849 56.8021 202.849 55.7411C202.849 54.7092 203.01 53.8323 203.33 53.1104C203.651 52.3837 204.103 51.8314 204.685 51.4535C205.268 51.0708 205.951 50.8794 206.736 50.8794C207.171 50.8794 207.573 50.94 207.943 51.0611C208.318 51.1822 208.649 51.3566 208.935 51.5844C209.221 51.812 209.456 52.0882 209.638 52.4128C209.821 52.7325 209.942 53.0983 210.001 53.5101Z" fill="#404041"/>
<path d="M219.296 48.2996V63.1826H222.502V57.0347H229.01V63.1826H232.208V48.2996H229.01V54.4403H222.502V48.2996H219.296Z" fill="#404041"/>
<path d="M251.287 63.1826V48.2996H248.096V57.6596H247.962L241.417 48.2996H238.604V63.1826H241.81V53.8153H241.921L248.518 63.1826H251.287Z" fill="#404041"/>
<path fill-rule="evenodd" clip-rule="evenodd" d="M270.682 59.8834C271.309 58.7449 271.622 57.3641 271.622 55.7411C271.622 54.1181 271.309 52.7374 270.682 51.5989C270.06 50.4604 269.211 49.5932 268.135 48.9973C267.064 48.3965 265.86 48.0961 264.522 48.0961C263.174 48.0961 261.965 48.3965 260.894 48.9973C259.823 49.5932 258.976 50.4604 258.355 51.5989C257.733 52.7374 257.422 54.1181 257.422 55.7411C257.422 57.3593 257.733 58.7376 258.355 59.8761C258.976 61.0146 259.823 61.8842 260.894 62.485C261.965 63.0858 263.174 63.3861 264.522 63.3861C265.86 63.3861 267.064 63.0882 268.135 62.4923C269.211 61.8915 270.06 61.0219 270.682 59.8834ZM267.891 53.0813C268.211 53.8032 268.372 54.6898 268.372 55.7411C268.372 56.7924 268.211 57.679 267.891 58.4009C267.575 59.1227 267.128 59.6702 266.551 60.0433C265.973 60.4163 265.297 60.6028 264.522 60.6028C263.747 60.6028 263.071 60.4163 262.493 60.0433C261.916 59.6702 261.467 59.1227 261.146 58.4009C260.83 57.679 260.672 56.7924 260.672 55.7411C260.672 54.6898 260.83 53.8032 261.146 53.0813C261.467 52.3595 261.916 51.812 262.493 51.439C263.071 51.066 263.747 50.8794 264.522 50.8794C265.297 50.8794 265.973 51.066 266.551 51.439C267.128 51.812 267.575 52.3595 267.891 53.0813Z" fill="#404041"/>
<path d="M277.75 48.2996V63.1826H287.456V60.5883H280.956V48.2996H277.75Z" fill="#404041"/>
<path fill-rule="evenodd" clip-rule="evenodd" d="M305.735 59.8834C306.362 58.7449 306.675 57.3641 306.675 55.7411C306.675 54.1181 306.362 52.7374 305.735 51.5989C305.113 50.4604 304.264 49.5932 303.188 48.9973C302.117 48.3965 300.913 48.0961 299.575 48.0961C298.228 48.0961 297.018 48.3965 295.947 48.9973C294.876 49.5932 294.03 50.4604 293.408 51.5989C292.786 52.7374 292.475 54.1181 292.475 55.7411C292.475 57.3593 292.786 58.7376 293.408 59.8761C294.03 61.0146 294.876 61.8842 295.947 62.485C297.018 63.0858 298.228 63.3861 299.575 63.3861C300.913 63.3861 302.117 63.0882 303.188 62.4923C304.264 61.8915 305.113 61.0219 305.735 59.8834ZM302.944 53.0813C303.265 53.8032 303.425 54.6898 303.425 55.7411C303.425 56.7924 303.265 57.679 302.944 58.4009C302.628 59.1227 302.181 59.6702 301.604 60.0433C301.026 60.4163 300.35 60.6028 299.575 60.6028C298.8 60.6028 298.124 60.4163 297.547 60.0433C296.969 59.6702 296.52 59.1227 296.199 58.4009C295.883 57.679 295.725 56.7924 295.725 55.7411C295.725 54.6898 295.883 53.8032 296.199 53.0813C296.52 52.3595 296.969 51.812 297.547 51.439C298.124 51.066 298.8 50.8794 299.575 50.8794C300.35 50.8794 301.026 51.066 301.604 51.439C302.181 51.812 302.628 52.3595 302.944 53.0813Z" fill="#404041"/>
<path d="M322.421 52.173C322.608 52.4443 322.754 52.7568 322.857 53.1104H326.115C326.011 52.3741 325.777 51.7006 325.412 51.0902C325.046 50.4749 324.575 49.9444 323.998 49.4987C323.425 49.053 322.768 48.709 322.028 48.4667C321.288 48.2197 320.488 48.0961 319.629 48.0961C318.627 48.0961 317.697 48.2681 316.838 48.6121C315.979 48.9561 315.226 49.4575 314.58 50.1164C313.933 50.7753 313.43 51.5795 313.07 52.5291C312.714 53.4738 312.536 54.5493 312.536 55.7556C312.536 57.3253 312.835 58.6819 313.432 59.8252C314.034 60.9638 314.874 61.8431 315.95 62.4632C317.026 63.0785 318.274 63.3861 319.696 63.3861C320.969 63.3861 322.1 63.1342 323.087 62.6304C324.074 62.1217 324.849 61.3998 325.412 60.4648C325.974 59.5249 326.256 58.4009 326.256 57.0928V55.2179H319.911V57.587H323.167C323.154 58.1819 323.016 58.7003 322.754 59.1421C322.482 59.6072 322.087 59.9682 321.569 60.2249C321.056 60.4768 320.436 60.6028 319.711 60.6028C318.911 60.6028 318.218 60.4139 317.63 60.036C317.043 59.6533 316.589 59.0985 316.268 58.3718C315.947 57.6451 315.787 56.7634 315.787 55.7266C315.787 54.6898 315.95 53.8129 316.275 53.0959C316.601 52.3741 317.055 51.8241 317.638 51.4463C318.225 51.0684 318.906 50.8794 319.681 50.8794C320.096 50.8794 320.473 50.9303 320.814 51.032C321.159 51.1338 321.465 51.2816 321.732 51.4753C322.003 51.6643 322.233 51.8968 322.421 52.173Z" fill="#404041"/>
<path d="M334.508 48.2996H330.917L336.448 57.9212V63.1826H339.632V57.9212L345.162 48.2996H341.571L338.114 54.7092H337.966L334.508 48.2996Z" fill="#404041"/>
<path d="M165.667 71.6975V86.5805H168.873V80.4325H175.041V77.8382H168.873V74.2919H175.707V71.6975H165.667Z" fill="#404041"/>
<path d="M194.188 71.6975H190.982V81.0939C190.982 81.6607 190.854 82.1646 190.597 82.6054C190.345 83.0463 189.987 83.3927 189.523 83.6446C189.064 83.8965 188.524 84.0225 187.902 84.0225C187.285 84.0225 186.744 83.8965 186.28 83.6446C185.816 83.3927 185.456 83.0463 185.199 82.6054C184.948 82.1646 184.822 81.6607 184.822 81.0939V71.6975H181.616V81.3628C181.616 82.448 181.878 83.3975 182.401 84.2115C182.924 85.0254 183.657 85.66 184.6 86.1154C185.543 86.566 186.643 86.7913 187.902 86.7913C189.156 86.7913 190.254 86.566 191.197 86.1154C192.139 85.66 192.872 85.0254 193.395 84.2115C193.924 83.3975 194.188 82.448 194.188 81.3628V71.6975Z" fill="#404041"/>
<path d="M213.261 86.5805V71.6975H210.07V81.0575H209.936L203.392 71.6975H200.578V86.5805H203.784V77.2132H203.895L210.492 86.5805H213.261Z" fill="#404041"/>
<path fill-rule="evenodd" clip-rule="evenodd" d="M219.662 86.5805H225.037C226.577 86.5805 227.9 86.2826 229.006 85.6867C230.116 85.0908 230.968 84.2357 231.56 83.1214C232.157 82.0071 232.456 80.6748 232.456 79.1245C232.456 77.579 232.157 76.2516 231.56 75.1421C230.968 74.0326 230.121 73.1824 229.021 72.5914C227.92 71.9955 226.607 71.6975 225.082 71.6975H219.662V86.5805ZM224.904 83.8844H222.868V74.3936H224.912C225.859 74.3936 226.656 74.5583 227.303 74.8878C227.95 75.2172 228.436 75.7307 228.762 76.4284C229.092 77.126 229.258 78.0247 229.258 79.1245C229.258 80.2339 229.092 81.1399 228.762 81.8424C228.436 82.54 227.947 83.056 227.296 83.3903C226.649 83.7197 225.852 83.8844 224.904 83.8844Z" fill="#404041"/>
</g>
<defs>
<clipPath id="clip0_2578_3752">
<rect width="289.523" height="78.2144" fill="white" transform="translate(55.5195 16.3931)"/>
</clipPath>
</defs>
</svg>
