<svg width="250" height="105" viewBox="0 0 250 105" fill="none" xmlns="http://www.w3.org/2000/svg">
<g clip-path="url(#clip0_2388_4577)">
<path d="M30.2171 60.6416L30.4147 86.6182C30.4303 88.6982 30.468 90.0047 30.5278 90.5377C30.5441 90.7804 30.614 91.0164 30.7325 91.2288C30.851 91.4412 31.015 91.6248 31.2129 91.7662C31.8635 92.1057 32.5989 92.2484 33.3293 92.177H33.8987L33.9091 93.269L23.5091 93.347L23.5 92.255H24.1656C24.8656 92.3037 25.5658 92.1627 26.1923 91.8468C26.3853 91.7257 26.5495 91.5638 26.6733 91.3724C26.797 91.1811 26.8774 90.9649 26.9086 90.7392C27.0117 89.3794 27.0408 88.015 26.9957 86.652L26.8501 67.412C26.9689 66.1001 26.7719 64.7789 26.2755 63.5588C25.9089 63.0301 25.0201 62.7701 23.6092 62.7788L23.6014 61.6868C24.7447 61.6615 25.8839 61.5415 27.0074 61.328C27.9267 61.2006 28.8289 60.9708 29.6971 60.6429L30.2171 60.6416Z" fill="#C07D75"/>
<path d="M36.3983 83.493C36.3513 82.1105 36.587 80.7329 37.0911 79.4446C37.5951 78.1564 38.3569 76.9846 39.3298 76.0011C41.2864 74.0588 43.9263 72.9606 46.6832 72.9421C49.4401 72.9237 52.0945 73.9864 54.077 75.9023C55.0632 76.8697 55.8419 78.0278 56.3658 79.306C56.8897 80.5843 57.1478 81.9558 57.1242 83.337C57.2113 84.7665 56.9908 86.198 56.4777 87.535C55.9646 88.872 55.1708 90.0835 54.1498 91.0876C52.1797 92.9626 49.5542 93.9924 46.8347 93.9567C45.4859 93.9946 44.1429 93.7664 42.8824 93.285C41.6219 92.8036 40.4686 92.0786 39.4884 91.1513C38.4613 90.1658 37.6548 88.9736 37.1222 87.6535C36.5895 86.3334 36.3428 84.9154 36.3983 83.493ZM40.3399 83.5814C40.3659 87.0325 40.9461 89.4462 42.0806 90.8224C42.6567 91.5093 43.3854 92.0518 44.2087 92.4067C45.0319 92.7615 45.9268 92.9189 46.8217 92.866C47.7234 92.913 48.6234 92.7459 49.4481 92.3782C50.2729 92.0106 50.9988 91.453 51.5667 90.7509C52.6561 89.3582 53.1882 86.9359 53.1631 83.4839C53.1353 80.0649 52.572 77.6313 51.4731 76.1831C50.9111 75.4598 50.1802 74.8854 49.3445 74.5103C48.5089 74.1352 47.5939 73.9708 46.68 74.0316C45.7682 73.9864 44.8592 74.164 44.0315 74.5491C43.2038 74.9341 42.4825 75.5151 41.9298 76.2416C40.8456 77.6994 40.3156 80.146 40.3399 83.5814Z" fill="#C07D75"/>
<path d="M75.5174 75.2195C75.9895 74.5647 76.597 74.0193 77.2987 73.6202C78.0003 73.2212 78.7797 72.9778 79.5838 72.9068C79.9049 72.8848 80.2273 72.9271 80.532 73.0311C80.8367 73.1351 81.1175 73.2988 81.3583 73.5126C81.5521 73.681 81.709 73.8877 81.819 74.1197C81.9291 74.3517 81.99 74.604 81.9979 74.8607C82.0057 75.9059 81.5346 76.4319 80.5848 76.4389C80.2916 76.417 80.01 76.3156 79.7702 76.1456C79.5304 75.9757 79.3415 75.7436 79.2237 75.4743C78.8701 74.8776 78.5048 74.5773 78.1252 74.5799C77.726 74.6408 77.3436 74.7834 77.0021 74.9988C76.6605 75.2142 76.367 75.4978 76.1401 75.8318C76.9508 77.055 77.3901 78.4867 77.405 79.9541C77.4271 81.8347 76.7073 83.6483 75.4017 85.002C74.0505 86.4857 71.7612 87.2952 68.5338 87.4304C65.1789 87.5656 63.5058 88.2589 63.5145 89.5104C63.5197 90.0954 63.9027 90.5036 64.6637 90.735C66.2081 91.0846 67.7862 91.2638 69.3697 91.2693C71.3988 91.3073 73.42 91.535 75.4069 91.9492C76.5464 92.2427 77.5795 92.8533 78.3861 93.71C79.1928 94.5668 79.7401 95.6347 79.9644 96.7899C80.1888 97.9451 80.0812 99.1402 79.6539 100.237C79.2267 101.333 78.4974 102.286 77.5506 102.985C75.3731 104.422 72.7906 105.118 70.1861 104.971C67.7127 105.109 65.2517 104.534 63.0959 103.314C62.3062 102.9 61.6408 102.284 61.168 101.528C60.6951 100.772 60.4317 99.9044 60.4049 99.0134C60.3623 98.1568 60.6249 97.313 61.1459 96.6318C61.4077 96.3186 61.7387 96.0705 62.1127 95.9069C62.4867 95.7434 62.8936 95.6689 63.3013 95.6893C63.5359 95.6856 63.7693 95.7244 63.9903 95.8037C63.086 96.7194 62.568 97.9476 62.5434 99.2344C62.5534 99.9293 62.7411 100.61 63.0885 101.212C63.436 101.814 63.9317 102.317 64.5285 102.673C66.3064 103.691 68.3487 104.152 70.3915 103.996C72.2936 104.093 74.1784 103.593 75.7826 102.566C76.3761 102.179 76.8623 101.649 77.1959 101.024C77.5296 100.399 77.6998 99.6997 77.691 98.9913C77.7443 98.326 77.6075 97.6593 77.2963 97.0689C76.985 96.4784 76.5124 95.9887 75.9334 95.6568C73.9684 94.8756 71.8641 94.5061 69.7506 94.5713C66.3472 94.4534 64.1372 94.0504 63.1206 93.3623C62.6576 93.097 62.2719 92.7154 62.0017 92.2553C61.7315 91.7951 61.5862 91.2724 61.5801 90.7389C61.5645 88.6641 63.0036 87.3467 65.8974 86.7869C64.541 86.0541 63.3691 85.0223 62.4706 83.7696C61.7049 82.6452 61.2971 81.3157 61.3006 79.9554C61.2858 78.9939 61.4845 78.0412 61.8824 77.1658C62.2803 76.2904 62.8675 75.5142 63.6016 74.8932C65.1092 73.5112 67.0854 72.7533 69.1305 72.7729C70.307 72.7109 71.4834 72.8967 72.5836 73.3181C73.6838 73.7396 74.6833 74.3873 75.5174 75.2195ZM64.8717 80.4754C64.7503 82.074 65.2085 83.6628 66.1626 84.9513C66.5605 85.3951 67.048 85.7494 67.5929 85.9908C68.1379 86.2322 68.7279 86.3553 69.3239 86.3519C69.9199 86.3484 70.5084 86.2186 71.0506 85.9708C71.5927 85.7231 72.0761 85.3632 72.4689 84.9149C73.4647 83.4816 73.9105 81.7375 73.7247 80.0022C73.7073 77.6622 73.2367 76.051 72.3129 75.1688C71.9057 74.7546 71.4201 74.4256 70.8844 74.2011C70.3487 73.9765 69.7737 73.8609 69.1929 73.861C68.5506 73.8284 67.911 73.9651 67.3382 74.2574C66.7653 74.5496 66.2792 74.9872 65.9286 75.5263C65.1096 77.0407 64.7428 78.7585 64.8717 80.4754Z" fill="#C07D75"/>
<path d="M83.5084 83.1314C83.4615 81.749 83.6977 80.3715 84.2025 79.0836C84.7073 77.7957 85.47 76.6246 86.4438 75.6421C88.399 73.698 91.0388 72.5983 93.796 72.5794C96.5532 72.5604 99.2079 73.6237 101.19 75.5407C102.176 76.5082 102.954 77.6664 103.478 78.9446C104.002 80.2228 104.26 81.5942 104.237 82.9754C104.324 84.4057 104.102 85.8379 103.588 87.1753C103.073 88.5126 102.278 89.724 101.255 90.7273C99.285 92.602 96.6598 93.6313 93.9409 93.5951C92.5927 93.6348 91.2499 93.4084 89.9892 92.9291C88.7285 92.4498 87.5745 91.7268 86.5933 90.8014C85.5654 89.8142 84.7589 88.62 84.2271 87.2978C83.6952 85.9755 83.4503 84.5554 83.5084 83.1314ZM87.4513 83.2211C87.4773 86.6722 88.0571 89.0863 89.1907 90.4634C89.8 91.1145 90.5377 91.6321 91.3571 91.9838C92.1765 92.3355 93.0599 92.5135 93.9516 92.5067C94.8433 92.4998 95.7239 92.3083 96.5378 91.9441C97.3518 91.5799 98.0814 91.0509 98.6807 90.3906C99.7709 88.9988 100.303 86.5764 100.277 83.1236C100.249 79.7046 99.686 77.2715 98.5871 75.8241C97.9912 75.1438 97.256 74.5997 96.4312 74.2287C95.6065 73.8578 94.7116 73.6686 93.8072 73.6742C92.9029 73.6797 92.0104 73.8798 91.1902 74.2609C90.3701 74.642 89.6416 75.1951 89.0542 75.8826C87.9587 77.3438 87.4244 79.7917 87.4513 83.2263V83.2211Z" fill="#C07D75"/>
<path d="M114.015 71.8033L114.12 85.7861C114.136 87.9233 114.179 89.2696 114.25 89.8252C114.272 90.0759 114.347 90.3191 114.471 90.5379C114.596 90.7567 114.766 90.946 114.971 91.0927C115.642 91.4411 116.4 91.5883 117.153 91.5165H117.673L117.682 92.6436L106.883 92.7242L106.874 91.5971L107.707 91.5906C108.498 91.6807 109.296 91.4971 109.968 91.0706C110.306 90.7533 110.52 90.3261 110.571 89.8655C110.626 89.4001 110.645 88.0489 110.627 85.8121L110.57 79.7385C110.649 78.293 110.527 76.8437 110.209 75.4316C110.137 75.2157 110.02 75.0175 109.866 74.8497C109.713 74.682 109.525 74.5484 109.317 74.4579C108.689 74.3028 108.041 74.2419 107.395 74.2772H106.734L106.725 73.1501C109.019 72.9615 111.284 72.5087 113.474 71.8007L114.015 71.8033ZM109.205 61.6022C109.198 61.2649 109.259 60.9297 109.386 60.6168C109.512 60.304 109.7 60.02 109.94 59.7822C110.168 59.5361 110.446 59.3403 110.755 59.2074C111.063 59.0744 111.396 59.0072 111.732 59.01C112.067 59.0019 112.399 59.064 112.708 59.1923C113.017 59.3206 113.296 59.5123 113.526 59.7549C113.765 59.9906 113.954 60.2719 114.083 60.582C114.211 60.8922 114.276 61.2249 114.274 61.5606C114.283 61.9006 114.224 62.2389 114.1 62.5558C113.976 62.8726 113.791 63.1614 113.554 63.4053C113.327 63.6508 113.051 63.8461 112.744 63.9789C112.438 64.1117 112.107 64.1788 111.773 64.1762C111.436 64.1833 111.102 64.1208 110.792 63.9926C110.481 63.8644 110.2 63.6733 109.967 63.4313C109.724 63.1931 109.532 62.9082 109.402 62.5939C109.272 62.2796 109.208 61.9422 109.212 61.6022H109.205Z" fill="#C07D75"/>
<path d="M124.667 71.7214H125.328C125.633 72.7955 125.782 73.9081 125.769 75.0247C126.711 73.9775 127.848 73.1243 129.117 72.5131C130.9 71.7055 132.889 71.4668 134.813 71.8295C136.737 72.1921 138.503 73.1384 139.87 74.5398C141.791 76.6351 142.806 79.4045 142.695 82.2449C142.81 85.1199 141.839 87.933 139.975 90.1255C139.076 91.169 137.955 91.9988 136.695 92.5545C135.434 93.1102 134.066 93.3778 132.689 93.3378C131.463 93.3506 130.247 93.1056 129.122 92.6189C127.919 92.0886 126.823 91.3461 125.883 90.427L125.941 98.0424C125.915 99.4559 125.971 100.87 126.108 102.277C126.145 102.512 126.234 102.736 126.369 102.932C126.504 103.129 126.682 103.292 126.888 103.41C127.641 103.718 128.456 103.841 129.266 103.772L129.275 104.899L118.795 104.971L118.785 103.844H119.52C120.311 103.934 121.109 103.75 121.782 103.324C122.121 103.008 122.335 102.58 122.384 102.119C122.438 101.656 122.457 100.305 122.44 98.0672L122.303 79.849C122.288 77.7118 122.249 76.365 122.186 75.8086C122.169 75.5584 122.097 75.3152 121.974 75.0963C121.852 74.8774 121.683 74.6882 121.479 74.5424C120.808 74.1936 120.05 74.0464 119.296 74.1186H118.563L118.553 72.9915C120.62 72.7258 122.664 72.3012 124.667 71.7214ZM125.873 88.806C126.651 89.7838 127.609 90.6036 128.695 91.2213C129.651 91.7524 130.728 92.027 131.822 92.0183C132.753 92.0029 133.669 91.7783 134.501 91.3611C135.334 90.9439 136.062 90.3447 136.632 89.6081C137.992 88.0125 138.658 85.4849 138.631 82.0252C138.799 79.6119 138.076 77.2209 136.598 75.3055C136.018 74.6132 135.292 74.0578 134.472 73.6789C133.652 73.3 132.759 73.1069 131.856 73.1137C130.729 73.1213 129.625 73.4253 128.654 73.9951C127.536 74.6729 126.559 75.5611 125.779 76.6107L125.873 88.806Z" fill="#C07D75"/>
<path d="M146.792 93.0568L146.742 86.471L147.698 86.4619C148.836 90.257 150.834 92.1442 153.692 92.1234C154.211 92.1581 154.731 92.0726 155.212 91.8735C155.692 91.6744 156.12 91.3671 156.463 90.9755C157.046 90.2816 157.365 89.4032 157.362 88.4964C157.376 88.0237 157.294 87.5532 157.122 87.1126C156.951 86.672 156.692 86.2704 156.362 85.9315C155.182 84.9479 153.865 84.1417 152.452 83.5382C150.831 82.8351 149.348 81.851 148.07 80.6314C147.181 79.6888 146.697 78.4351 146.722 77.1396C146.735 75.7525 147.226 74.4124 148.114 73.3462C148.583 72.7467 149.189 72.2679 149.881 71.9496C150.572 71.6312 151.33 71.4825 152.091 71.5158C152.93 71.4985 153.762 71.6795 154.518 72.0441C155.274 72.4087 155.934 72.9466 156.443 73.614C156.848 73.0683 157.165 72.4625 157.383 71.8187H158.293L158.338 78.0145L157.428 78.021C157.124 76.6037 156.461 75.2884 155.502 74.2016C155.099 73.7078 154.591 73.3099 154.015 73.0369C153.439 72.7639 152.81 72.6226 152.173 72.6234C151.736 72.6078 151.3 72.6817 150.893 72.8407C150.485 72.9997 150.115 73.2402 149.804 73.5477C149.519 73.8202 149.293 74.1483 149.14 74.5117C148.987 74.875 148.91 75.266 148.915 75.6602C148.915 76.0891 149.006 76.5131 149.181 76.9043C149.357 77.2955 149.613 77.6451 149.934 77.93C151.061 78.8616 152.332 79.6044 153.697 80.1296C156.484 81.3672 158.191 82.5805 158.818 83.7696C159.41 84.8332 159.738 86.0229 159.776 87.2393C159.812 88.0305 159.68 88.8203 159.389 89.5568C159.098 90.2933 158.654 90.9598 158.086 91.5124C157.51 92.0629 156.83 92.4941 156.086 92.7813C155.342 93.0684 154.549 93.2057 153.752 93.1855C152.817 93.1838 151.893 92.9834 151.041 92.5974C150.19 92.2115 149.43 91.6489 148.812 90.9469C148.308 91.5658 147.946 92.2872 147.75 93.0607L146.792 93.0568Z" fill="#C07D75"/>
<path d="M183.124 72.0903L183.223 85.2398C183.238 87.4273 183.281 88.7979 183.353 89.3517C183.373 89.6013 183.449 89.843 183.576 90.0588C183.703 90.2745 183.877 90.4586 184.086 90.5971C184.784 90.9286 185.559 91.066 186.328 90.9949L186.337 92.122C184.492 92.0663 182.653 92.3451 180.907 92.9449H180.613C179.965 91.4855 179.668 89.894 179.746 88.2987C178.899 89.7168 177.739 90.9234 176.356 91.8269C175.084 92.6189 173.614 93.0366 172.115 93.032C170.871 93.0668 169.64 92.7593 168.559 92.1428C167.628 91.6472 166.88 90.8675 166.423 89.9172C165.966 88.6399 165.761 87.2866 165.817 85.9314L165.766 79.0999C165.789 77.6816 165.738 76.2631 165.611 74.8502C165.58 74.6134 165.493 74.3874 165.358 74.1907C165.222 73.9941 165.042 73.8325 164.831 73.7192C164.072 73.4223 163.254 73.3027 162.441 73.3695L162.432 72.2424L169.238 72.1904L169.344 86.1004C169.317 87.1042 169.408 88.1076 169.613 89.0904C169.822 89.7649 170.27 90.3401 170.873 90.7089C171.56 91.1737 172.375 91.4114 173.205 91.3888C174.506 91.3629 175.765 90.92 176.795 90.1252C177.785 89.4636 178.584 88.5547 179.113 87.4888C179.578 86.2225 179.781 84.8748 179.709 83.5277L179.675 78.9985C179.659 76.8111 179.625 75.4803 179.571 75.0062C179.516 74.5325 179.29 74.0949 178.936 73.7751C178.254 73.3451 177.444 73.165 176.643 73.2655H176.123L176.115 72.1384L183.124 72.0903Z" fill="#C07D75"/>
<path d="M194.478 71.1963H194.723C195.25 72.5337 195.502 73.9635 195.464 75.4005C196.408 74.1145 197.602 73.0321 198.974 72.2181C200.214 71.5107 201.615 71.1367 203.043 71.1326C204.469 71.0555 205.882 71.4402 207.073 72.2298C208.168 73.064 208.939 74.2528 209.254 75.5929C210.305 74.2385 211.59 73.0839 213.049 72.1843C214.249 71.4515 215.623 71.0521 217.03 71.0273C218.422 70.9727 219.799 71.3378 220.982 72.0751C221.923 72.6092 222.629 73.4786 222.959 74.51C223.247 75.9681 223.372 77.4534 223.335 78.9391L223.38 84.9633C223.354 86.3849 223.409 87.8069 223.546 89.2221C223.582 89.4577 223.673 89.6816 223.81 89.8763C223.948 90.071 224.128 90.2311 224.338 90.344C225.106 90.6423 225.932 90.761 226.754 90.6911L226.761 91.8182L216.751 91.8949L216.744 90.7678C217.507 90.8152 218.272 90.6881 218.98 90.396C219.185 90.2877 219.363 90.1336 219.5 89.9456C219.636 89.7576 219.728 89.5408 219.767 89.3118C219.898 87.8753 219.936 86.432 219.882 84.9906L219.832 78.3047C219.849 77.2789 219.762 76.254 219.572 75.2458C219.39 74.5308 218.954 73.9065 218.345 73.4895C217.596 72.9784 216.7 72.7272 215.795 72.7745C214.645 72.8119 213.534 73.1962 212.607 73.8769C211.365 74.7834 210.284 75.8926 209.41 77.1581L209.471 85.0686C209.487 87.2058 209.525 88.5491 209.586 89.0986C209.604 89.3476 209.676 89.5897 209.796 89.8086C209.917 90.0275 210.082 90.2181 210.283 90.3674C210.937 90.7258 211.685 90.8781 212.428 90.8042L212.438 91.9313L202.739 92.0041L202.731 90.877C203.51 90.9252 204.29 90.8028 205.018 90.5182C205.222 90.4137 205.401 90.264 205.54 90.0805C205.678 89.897 205.774 89.6844 205.818 89.4587C205.962 88.01 206.005 86.5532 205.948 85.0985L205.905 79.5397C205.926 78.2585 205.847 76.9776 205.669 75.7086C205.512 74.8984 205.057 74.1765 204.394 73.6858C203.641 73.1133 202.711 72.8218 201.766 72.8616C200.662 72.8978 199.591 73.2447 198.675 73.8626C197.461 74.6776 196.383 75.6773 195.478 76.8253L195.542 85.1765C195.557 87.3796 195.601 88.7511 195.672 89.291C195.694 89.5372 195.773 89.775 195.902 89.9862C196.03 90.1973 196.206 90.3762 196.414 90.5091C197.126 90.8408 197.913 90.9785 198.696 90.9082L198.703 92.0353L188.886 92.1081L188.877 90.981C189.649 91.0295 190.422 90.9024 191.139 90.6092C191.343 90.5024 191.52 90.3506 191.656 90.1652C191.793 89.9798 191.885 89.7658 191.927 89.5393C192.056 88.098 192.095 86.6499 192.041 85.2038L191.995 79.2043C191.979 76.9172 191.932 75.5171 191.854 75.004C191.825 74.7647 191.74 74.5355 191.606 74.3346C191.473 74.1338 191.295 73.9668 191.085 73.847C190.348 73.5331 189.544 73.4045 188.745 73.4726L188.736 72.3455C190.686 72.1725 192.612 71.7872 194.478 71.1963Z" fill="#C07D75"/>
<path d="M208.502 48.3789H161.252V1.13037C173.783 1.13037 185.801 6.10828 194.662 14.9691C203.523 23.8298 208.501 35.8477 208.502 48.3789Z" fill="#C07D75"/>
<path d="M65.3827 48.3789H41.7578V24.754C41.7582 18.4885 44.2474 12.4797 48.6778 8.04948C53.1083 3.61924 59.1172 1.13037 65.3827 1.13037C68.4851 1.1302 71.5572 1.74112 74.4235 2.92824C77.2898 4.11536 79.8942 5.85543 82.088 8.0491C84.2818 10.2428 86.022 12.8471 87.2093 15.7133C88.3965 18.5795 89.0076 21.6516 89.0076 24.754C89.0076 31.0197 86.5186 37.0288 82.088 41.4593C77.6575 45.8898 71.6484 48.3789 65.3827 48.3789Z" fill="#C07D75"/>
<path d="M148.834 48.3788H101.584L101.426 0.97168L133.844 33.3885L148.834 48.3788Z" fill="#C07D75"/>
</g>
<defs>
<clipPath id="clip0_2388_4577">
<rect width="249.6" height="104" fill="white" transform="translate(0.330078 0.97168)"/>
</clipPath>
</defs>
</svg>
