<?xml version="1.0" encoding="utf-8"?>
<!-- Generator: Adobe Illustrator 26.5.0, SVG Export Plug-In . SVG Version: 6.00 Build 0)  -->
<svg version="1.1" id="Layer_1" xmlns="http://www.w3.org/2000/svg" xmlns:xlink="http://www.w3.org/1999/xlink" x="0px" y="0px"
	 viewBox="0 0 250 95.2" style="enable-background:new 0 0 250 95.2;" xml:space="preserve">
<style type="text/css">
	.st0{fill:#312E30;}
	.st1{fill:#A0CFC6;}
</style>
<g>
	<path class="st0" d="M0,35.3v-34h11.5c2.6,0,4.7,0.4,6.4,1.3c1.7,0.9,2.9,2.1,3.7,3.7c0.8,1.6,1.2,3.3,1.2,5.3c0,2-0.4,3.8-1.2,5.3
		c-0.8,1.6-2.1,2.8-3.7,3.7c-1.7,0.9-3.8,1.3-6.4,1.3H5.1v13.3H0z M5.1,17.4h6.1c2.2,0,3.8-0.5,4.8-1.6c1-1,1.5-2.4,1.5-4.2
		c0-1.7-0.5-3.1-1.5-4.2c-1-1.1-2.6-1.6-4.8-1.6H5.1V17.4z"/>
	<path class="st0" d="M28.5,35.3v-4.5h8.1V6.4c0-1.1-0.5-1.6-1.6-1.6h-5.8V0.3H36c1.9,0,3.3,0.5,4.3,1.5c1,1,1.5,2.4,1.5,4.3v24.7
		h8.1v4.5H28.5z"/>
	<path class="st0" d="M66.3,35.9c-1.9,0-3.5-0.3-4.8-1c-1.3-0.7-2.3-1.6-2.9-2.7c-0.6-1.1-1-2.3-1-3.7c0-2.4,0.9-4.2,2.6-5.5
		c1.7-1.3,4.2-2,7.4-2h6.2v-0.5c0-3.6-1.7-5.4-5.1-5.4c-1.4,0-2.6,0.3-3.5,0.9c-1,0.6-1.6,1.6-1.9,2.9h-5.1c0.3-2.5,1.4-4.5,3.3-6
		c1.9-1.5,4.4-2.2,7.3-2.2c3.6,0,6.2,0.9,7.8,2.6c1.6,1.7,2.4,4.2,2.4,7.2v14.8h-4.4l-0.4-3.5h-0.3c-0.7,1.1-1.6,2.1-2.7,2.9
		C70,35.5,68.4,35.9,66.3,35.9z M67.2,31.6c2.1,0,3.7-0.6,4.7-1.9c1.1-1.3,1.6-2.9,1.7-4.9h-5.6c-1.8,0-3.2,0.3-3.9,0.9
		c-0.8,0.6-1.1,1.4-1.1,2.5s0.4,1.9,1.1,2.5C64.9,31.3,65.9,31.6,67.2,31.6z"/>
	<path class="st0" d="M87,35.3v-4.5h7.6V17.3c0-1.1-0.5-1.6-1.6-1.6h-5.3v-4.5h6.3c2,0,3.5,0.5,4.4,1.4c0.9,0.9,1.4,2.4,1.4,4.4
		v13.8h7.6v4.5H87z M96.6,7.5c-1.1,0-2.1-0.4-2.8-1.1c-0.8-0.7-1.1-1.6-1.1-2.7s0.4-2,1.1-2.7C94.5,0.4,95.5,0,96.6,0
		c1.2,0,2.1,0.4,2.9,1.1c0.8,0.7,1.1,1.6,1.1,2.7s-0.4,2-1.1,2.7C98.8,7.2,97.8,7.5,96.6,7.5z"/>
	<path class="st0" d="M115,35.3V11.2h4.5l0.4,3.6h0.2c0.6-1.2,1.7-2.2,3-3c1.4-0.8,2.9-1.2,4.7-1.2c2.9,0,5.2,0.9,6.7,2.7
		c1.5,1.8,2.2,4.4,2.2,7.9v14.1h-5.1V21.8c0-2-0.4-3.6-1.3-4.7c-0.8-1.1-2.2-1.7-4-1.7c-1.8,0-3.3,0.6-4.4,1.8
		c-1.2,1.2-1.8,2.9-1.8,5.2v12.8H115z"/>
	<path class="st0" d="M157.1,35.3c-2.4,0-4.2-0.6-5.6-1.7c-1.4-1.1-2.1-3.2-2.1-6.1V15.6h-6.1v-4.4h3.6c1.7,0,2.6-0.8,2.9-2.4
		l0.7-3.9h4v6.3h9.5v4.4h-9.5v11.8c0,1.3,0.3,2.1,0.8,2.6c0.6,0.5,1.5,0.8,2.9,0.8h5.6v4.6H157.1z"/>
	<path class="st0" d="M183.4,35.9c-2.3,0-4.4-0.5-6.2-1.6c-1.8-1.1-3.2-2.5-4.2-4.4c-1-1.9-1.5-4.1-1.5-6.6c0-2.5,0.5-4.7,1.5-6.7
		c1-1.9,2.4-3.4,4.2-4.5s3.9-1.6,6.2-1.6c2.3,0,4.3,0.5,6,1.6c1.7,1.1,3,2.5,3.9,4.2c0.9,1.7,1.4,3.7,1.4,5.8c0,0.3,0,0.7,0,1
		c0,0.4,0,0.8,0,1.2h-18.1c0.2,2.2,0.9,3.9,2.2,5.1c1.3,1.1,2.8,1.7,4.6,1.7c1.5,0,2.7-0.3,3.6-0.9c0.9-0.6,1.5-1.5,2-2.6h5.2
		c-0.6,2.3-1.8,4.2-3.6,5.8C188.6,35.1,186.3,35.9,183.4,35.9z M183.4,15.1c-1.6,0-3,0.5-4.2,1.4c-1.2,1-2,2.3-2.4,4h12.8
		c-0.1-1.6-0.8-2.9-1.9-3.9C186.6,15.6,185.1,15.1,183.4,15.1z"/>
	<path class="st0" d="M200.1,35.3l8.3-12l-8.6-12h5.7l6.2,9l6.2-9h5.7l-8.6,12l8.3,12h-5.7l-5.9-9l-6,9H200.1z"/>
	<path class="st0" d="M243.1,35.3c-2.4,0-4.2-0.6-5.6-1.7c-1.4-1.1-2.1-3.2-2.1-6.1V15.6h-6.1v-4.4h3.6c1.7,0,2.6-0.8,2.9-2.4
		l0.7-3.9h4v6.3h9.5v4.4h-9.5v11.8c0,1.3,0.3,2.1,0.9,2.6c0.6,0.5,1.5,0.8,2.9,0.8h5.6v4.6H243.1z"/>
	<path class="st1" d="M4.3,65.3c-1.2,0-2.2-0.4-3.1-1.2C0.4,63.4,0,62.4,0,61.3c0-1.1,0.4-2.1,1.3-2.9c0.8-0.8,1.9-1.2,3.1-1.2
		c1.2,0,2.3,0.4,3.1,1.2c0.8,0.8,1.2,1.7,1.2,2.9c0,1.1-0.4,2.1-1.2,2.9C6.6,64.9,5.6,65.3,4.3,65.3z M4.3,84.2
		c-1.2,0-2.2-0.4-3.1-1.2C0.4,82.2,0,81.2,0,80.1C0,79,0.4,78,1.3,77.2c0.8-0.8,1.9-1.2,3.1-1.2c1.2,0,2.3,0.4,3.1,1.2
		C8.2,78,8.6,79,8.6,80.1c0,1.1-0.4,2.1-1.2,2.9C6.6,83.8,5.6,84.2,4.3,84.2z"/>
	<path class="st1" d="M32.5,65.3c-1.2,0-2.2-0.4-3.1-1.2c-0.8-0.8-1.3-1.8-1.3-2.9c0-1.1,0.4-2.1,1.3-2.9c0.8-0.8,1.9-1.2,3.1-1.2
		c1.2,0,2.3,0.4,3.1,1.2c0.8,0.8,1.2,1.7,1.2,2.9c0,1.1-0.4,2.1-1.2,2.9C34.7,64.9,33.7,65.3,32.5,65.3z M32.5,84.2
		c-1.2,0-2.2-0.4-3.1-1.2c-0.8-0.8-1.3-1.8-1.3-2.9c0-1.1,0.4-2.1,1.3-2.9c0.8-0.8,1.9-1.2,3.1-1.2c1.2,0,2.3,0.4,3.1,1.2
		c0.8,0.8,1.2,1.7,1.2,2.9c0,1.1-0.4,2.1-1.2,2.9C34.7,83.8,33.7,84.2,32.5,84.2z"/>
	<path class="st0" d="M83.8,83.9v-34H92c5.5,0,9.5,1.5,12.2,4.5c2.7,3,4,7.2,4,12.5c0,5.3-1.3,9.4-4,12.5c-2.7,3-6.7,4.5-12.2,4.5
		H83.8z M89,79.1h2.8c4,0,6.8-1.1,8.5-3.3c1.7-2.2,2.6-5.2,2.6-8.9c0-3.7-0.9-6.7-2.6-8.9c-1.7-2.2-4.6-3.3-8.5-3.3H89V79.1z"/>
	<path class="st0" d="M124.6,84.5c-2.3,0-4.4-0.5-6.2-1.6c-1.8-1.1-3.2-2.5-4.2-4.4c-1-1.9-1.5-4.1-1.5-6.6c0-2.5,0.5-4.7,1.5-6.7
		c1-1.9,2.4-3.4,4.2-4.5c1.8-1.1,3.9-1.6,6.2-1.6c2.3,0,4.3,0.5,6,1.6c1.7,1.1,3,2.5,3.9,4.2c0.9,1.7,1.4,3.7,1.4,5.8
		c0,0.3,0,0.7,0,1c0,0.4,0,0.8,0,1.2h-18.1c0.2,2.2,0.9,3.9,2.2,5.1c1.3,1.1,2.8,1.7,4.6,1.7c1.5,0,2.7-0.3,3.6-0.9
		c0.9-0.6,1.5-1.5,2-2.6h5.2c-0.6,2.3-1.8,4.2-3.6,5.8C129.8,83.7,127.4,84.5,124.6,84.5z M124.6,63.7c-1.6,0-3,0.5-4.2,1.4
		c-1.2,1-2,2.3-2.4,4h12.8c-0.1-1.6-0.8-2.9-1.9-3.9C127.8,64.2,126.3,63.7,124.6,63.7z"/>
	<path class="st0" d="M153.1,84.5c-3.2,0-5.7-0.7-7.6-2.2c-1.9-1.5-2.9-3.5-3.2-5.9h5.3c0.2,1.1,0.8,2.1,1.7,2.8
		c1,0.7,2.2,1.1,3.8,1.1c1.5,0,2.7-0.3,3.5-0.9c0.8-0.6,1.2-1.4,1.2-2.2c0-1.2-0.5-2.1-1.5-2.5c-1-0.5-2.4-0.8-4.3-1
		c-1.7-0.2-3.2-0.6-4.5-1.1c-1.3-0.6-2.4-1.3-3.2-2.3c-0.8-1-1.2-2.2-1.2-3.7c0-2.1,0.8-3.8,2.5-5.1c1.7-1.3,4-1.9,6.9-1.9
		c2.9,0,5.2,0.7,6.9,2c1.6,1.3,2.6,3.1,2.8,5.4h-5c-0.1-1-0.6-1.7-1.5-2.3c-0.9-0.6-2-0.9-3.3-0.9c-1.3,0-2.4,0.3-3.2,0.8
		c-0.8,0.5-1.2,1.2-1.2,2c0,1.7,1.9,2.8,5.6,3.2c1.8,0.2,3.4,0.5,4.8,1c1.4,0.5,2.5,1.2,3.3,2.2c0.8,1,1.2,2.4,1.2,4.2
		c0,1.5-0.4,2.8-1.2,3.9c-0.9,1.2-2,2.1-3.5,2.8C156.9,84.1,155.1,84.5,153.1,84.5z"/>
	<path class="st0" d="M171.4,83.9v-4.5h7.6V65.9c0-1.1-0.5-1.6-1.6-1.6h-5.3v-4.5h6.3c2,0,3.5,0.5,4.4,1.4c0.9,0.9,1.4,2.4,1.4,4.4
		v13.8h7.6v4.5H171.4z M181.1,56.1c-1.1,0-2.1-0.4-2.8-1.1c-0.8-0.7-1.1-1.6-1.1-2.7s0.4-2,1.1-2.7c0.8-0.7,1.7-1.1,2.8-1.1
		c1.2,0,2.1,0.4,2.9,1.1c0.8,0.7,1.1,1.6,1.1,2.7s-0.4,2-1.1,2.7C183.2,55.7,182.3,56.1,181.1,56.1z"/>
	<path class="st0" d="M209.7,77c-1.5,0-2.9-0.2-4.1-0.7l-1.2,1.5c-0.4,0.5-0.5,0.9-0.3,1.4c0.2,0.4,0.6,0.7,1.3,0.7h6.4
		c2.8,0,5.1,0.6,6.8,1.8c1.7,1.2,2.6,3,2.6,5.4c0,1.5-0.4,2.9-1.1,4.2c-0.8,1.2-2,2.2-3.6,3c-1.7,0.7-3.9,1.1-6.6,1.1
		c-3.4,0-6.2-0.6-8.3-1.9c-2.1-1.3-3.1-3.2-3.1-5.8c0-0.9,0.2-1.7,0.7-2.5c0.4-0.8,1-1.4,1.7-2.1c-0.9-0.6-1.4-1.6-1.6-2.7
		c-0.2-1.2,0.2-2.3,1-3.4l2.1-2.7c-1.5-1.6-2.3-3.6-2.3-6c0-1.6,0.4-3.1,1.1-4.4c0.8-1.3,1.9-2.4,3.3-3.2c1.4-0.8,3.2-1.2,5.2-1.2
		c1.3,0,2.6,0.2,3.7,0.6h9.1v3.4l-4.2,0.2v0.4c0.7,1.3,1,2.7,1,4.2c0,1.6-0.4,3.1-1.1,4.4c-0.8,1.4-1.9,2.4-3.3,3.3
		C213.4,76.5,211.7,77,209.7,77z M203.2,87.1c0,1.3,0.6,2.3,1.9,2.9c1.2,0.6,2.8,0.9,4.7,0.9c2,0,3.6-0.3,4.8-1
		c1.2-0.7,1.7-1.6,1.7-2.9c0-1-0.4-1.9-1.3-2.5c-0.8-0.6-2.3-0.9-4.3-0.9h-5.7C203.8,84.6,203.2,85.8,203.2,87.1z M209.7,72.8
		c1.4,0,2.6-0.4,3.5-1.3c0.9-0.8,1.4-2,1.4-3.5c0-1.4-0.5-2.6-1.4-3.4c-0.9-0.8-2.1-1.3-3.5-1.3c-1.5,0-2.6,0.4-3.6,1.3
		c-0.9,0.8-1.4,2-1.4,3.4c0,1.5,0.5,2.7,1.4,3.5C207.1,72.4,208.3,72.8,209.7,72.8z"/>
	<path class="st0" d="M228.1,83.9V59.8h4.5l0.4,3.6h0.2c0.6-1.2,1.7-2.2,3-3c1.4-0.8,2.9-1.2,4.7-1.2c2.9,0,5.2,0.9,6.7,2.7
		c1.5,1.8,2.2,4.4,2.2,7.9v14.1h-5.1V70.4c0-2-0.4-3.6-1.3-4.7c-0.8-1.1-2.2-1.7-4-1.7c-1.8,0-3.3,0.6-4.4,1.8
		c-1.2,1.2-1.8,2.9-1.8,5.2v12.8H228.1z"/>
</g>
</svg>
