<svg width="401" height="111" viewBox="0 0 401 111" fill="none" xmlns="http://www.w3.org/2000/svg">
<path d="M150.806 56.453L150.575 56.39L149.378 53.324L148.181 56.39L147.95 56.453L146.207 55.172V54.941L148.748 52.841L145.451 52.652L145.325 52.463L145.976 50.405L146.228 50.342L149 52.127L148.16 48.914L148.307 48.725H150.47L150.617 48.914L149.756 52.127L152.549 50.342L152.78 50.405L153.431 52.463L153.305 52.652L150.008 52.841L152.549 54.941L152.57 55.172L150.806 56.453ZM157.77 65V64.643L159.597 63.362V50.678L160.584 51.413L154.977 51.854V50.51H166.59V51.854L160.983 51.413L161.991 50.678V63.362L163.797 64.643V65H157.77ZM154.368 53.975L154.431 50.321H154.704L157.35 50.51L157.392 51.455L154.746 53.975H154.368ZM166.842 53.975L164.175 51.455L164.217 50.51L166.863 50.321H167.157L167.22 53.975H166.842ZM166.689 65V64.685L168.516 63.194L168.18 63.782V56.81L169.083 58.196L166.668 56.306V55.949L169.881 54.731H170.406L170.28 56.873H170.406V63.824L170.091 63.257L172.527 64.685V65H166.689ZM170.238 58.238L170.091 56.873H170.385C170.777 56.159 171.281 55.599 171.897 55.193C172.513 54.773 173.15 54.563 173.808 54.563C174.312 54.563 174.781 54.647 175.215 54.815L174.018 58.007H173.64L171.708 56.012L173.556 56.537C172.842 56.537 172.191 56.691 171.603 56.999C171.015 57.293 170.56 57.706 170.238 58.238ZM180.47 65.273C179.392 65.273 178.58 64.965 178.034 64.349C177.488 63.719 177.215 62.788 177.215 61.556V56.579L178.118 58.028L175.829 56.222V55.865L178.937 54.752H179.462V60.926C179.462 61.864 179.609 62.536 179.903 62.942C180.211 63.348 180.729 63.551 181.457 63.551C182.031 63.551 182.556 63.425 183.032 63.173C183.508 62.921 183.977 62.536 184.439 62.018V63.362H184.124C183.452 64.062 182.843 64.559 182.297 64.853C181.751 65.133 181.142 65.273 180.47 65.273ZM184.901 65.252L184.292 63.362H184.103V56.558L185.006 58.007L182.612 56.201V55.865L185.804 54.731H186.329V63.215L185.468 61.934L187.694 63.614V63.971L185.3 65.252H184.901ZM193.229 65.273C192.697 65.273 192.158 65.217 191.612 65.105C191.066 65.007 190.541 64.867 190.037 64.685C189.547 64.503 189.113 64.286 188.735 64.034L189.827 61.724H190.205L192.263 64.601H190.709L190.604 62.963C190.94 63.383 191.332 63.691 191.78 63.887C192.228 64.069 192.753 64.16 193.355 64.16C194.069 64.16 194.643 64.006 195.077 63.698C195.525 63.39 195.749 62.998 195.749 62.522C195.749 62.102 195.588 61.78 195.266 61.556C194.958 61.318 194.559 61.129 194.069 60.989C193.579 60.835 193.054 60.688 192.494 60.548C191.948 60.408 191.43 60.226 190.94 60.002C190.464 59.778 190.065 59.484 189.743 59.12C189.435 58.742 189.281 58.245 189.281 57.629C189.281 56.677 189.673 55.935 190.457 55.403C191.241 54.857 192.305 54.584 193.649 54.584C194.125 54.584 194.608 54.626 195.098 54.71C195.588 54.794 196.057 54.913 196.505 55.067C196.967 55.221 197.38 55.41 197.744 55.634L196.631 57.923H196.253L194.048 55.067H195.749L195.854 56.705C195.602 56.383 195.259 56.131 194.825 55.949C194.391 55.767 193.943 55.676 193.481 55.676C192.837 55.676 192.319 55.802 191.927 56.054C191.549 56.292 191.36 56.621 191.36 57.041C191.36 57.447 191.514 57.762 191.822 57.986C192.144 58.21 192.55 58.399 193.04 58.553C193.53 58.693 194.048 58.833 194.594 58.973C195.154 59.113 195.679 59.295 196.169 59.519C196.659 59.743 197.058 60.044 197.366 60.422C197.688 60.8 197.849 61.304 197.849 61.934C197.849 62.998 197.45 63.824 196.652 64.412C195.854 64.986 194.713 65.273 193.229 65.273ZM204.273 65.273C203.545 65.273 202.908 65.119 202.362 64.811C201.816 64.503 201.396 64.076 201.102 63.53C200.808 62.97 200.661 62.312 200.661 61.556V55.193L201.564 56.432H198.897V56.075L202.383 52.127H202.887V60.947C202.887 61.843 203.048 62.522 203.37 62.984C203.706 63.432 204.217 63.656 204.903 63.656C205.841 63.656 206.632 63.271 207.276 62.501L207.864 62.9C207.542 63.614 207.059 64.188 206.415 64.622C205.785 65.056 205.071 65.273 204.273 65.273ZM206.835 56.621L202.425 56.054V55.046L206.772 54.542H207.066V56.474L206.835 56.621ZM214.285 65V64.643L215.902 63.362V52.148L214.285 50.867V50.51H220.102V50.867L218.296 52.148V65H214.285ZM217.771 65V64.076L225.058 63.698V65H217.771ZM222.307 65V64.118L225.037 61.01H225.415L225.331 65H222.307ZM234.961 65.252L234.394 63.614H234.184V58.637C234.184 57.699 233.974 56.992 233.554 56.516C233.134 56.04 232.511 55.802 231.685 55.802C231.251 55.802 230.831 55.893 230.425 56.075C230.033 56.257 229.711 56.502 229.459 56.81L229.564 55.067H231.307L229.06 58.007H228.682L227.569 55.613C227.933 55.403 228.346 55.221 228.808 55.067C229.27 54.913 229.76 54.794 230.278 54.71C230.796 54.612 231.314 54.563 231.832 54.563C233.358 54.563 234.499 54.871 235.255 55.487C236.025 56.089 236.41 56.999 236.41 58.217V63.215L235.549 61.934L237.775 63.614V63.971L235.36 65.252H234.961ZM230.425 65.273C229.501 65.273 228.745 65.021 228.157 64.517C227.583 63.999 227.296 63.334 227.296 62.522C227.296 60.646 228.766 59.463 231.706 58.973L234.898 58.469V59.372L232.651 59.918C231.517 60.184 230.719 60.485 230.257 60.821C229.809 61.143 229.585 61.591 229.585 62.165C229.585 62.627 229.739 62.991 230.047 63.257C230.355 63.523 230.782 63.656 231.328 63.656C232.616 63.656 233.673 63.222 234.499 62.354V63.614H234.205C233.673 64.174 233.099 64.594 232.483 64.874C231.867 65.14 231.181 65.273 230.425 65.273ZM242.97 65.21L238.245 55.571H239.001V56.873L237.405 55.151V54.836H242.361V55.151L240.87 56.726H240.639V55.592L244.272 62.984H243.705L246.078 54.836H247.002L247.401 56.642L243.537 65.21H242.97ZM249.501 65.21L246.183 57.377L246.519 54.836H247.443L250.908 62.963H250.362L252.861 55.34L252.882 56.6H252.672L251.223 55.151V54.836H255.675V55.151L254.058 56.852V55.571H254.835L250.089 65.21H249.501Z" fill="black"/>
</svg>
