<svg width="401" height="111" viewBox="0 0 401 111" fill="none" xmlns="http://www.w3.org/2000/svg">
<path d="M198.652 74.2178C204.155 74.2178 205.816 73.426 208.827 69.863C208.827 71.9401 210.51 73.624 212.588 73.624H216.717V42.0513H208.411V59.6686C208.411 64.8153 205.608 67.7845 201.248 67.7845C197.199 67.7845 195.641 65.6071 195.641 61.3512V42.0513H187.336V62.9348C187.44 70.5558 191.177 74.2178 198.652 74.2178Z" fill="#1F78D1"/>
<path d="M249.931 41.4587L244.574 41.4585L241.857 47.8797C241.857 47.8797 256.363 46.37 256.363 51.5167V52.2095C256.26 53.6941 255.221 54.4859 252.107 54.6838L246.397 55.2777C238.091 55.8715 234.977 59.7315 234.977 64.5812C234.977 70.4207 239.129 74.1817 246.916 74.1817C252.314 74.1817 254.598 73.5879 256.363 70.4207C256.467 70.3217 256.571 70.1238 256.675 69.9258C256.675 71.9483 258.314 73.5879 260.337 73.5879H264.565V52.9023C264.669 46.469 260.105 41.5576 249.931 41.4587ZM256.363 60.3254C256.363 64.8782 253.456 68.6392 248.369 68.6392C244.113 68.6392 242.244 66.7587 242.244 63.8884C242.244 61.612 243.905 59.9295 248.058 59.6325L252.003 59.3356C254.287 59.1377 255.74 58.7418 256.363 58.1479V60.3254Z" fill="#1F78D1"/>
<path d="M240.594 41.459H238.583C234.015 41.459 230.646 43.729 229.297 47.292V42.0464H221.406V65.3136C221.406 69.9006 225.125 73.6191 229.712 73.6191V56.5956C229.712 49.9601 232.931 47.8859 237.887 47.8859L240.594 41.459Z" fill="#1F78D1"/>
<path d="M129.501 80.3838L138.972 55.0601C131.003 56.051 123.727 59.244 117.605 64.0885C119.107 70.8048 123.496 76.5302 129.501 80.3838Z" fill="#1F78D1"/>
<path d="M159.876 80.3838C165.997 76.7504 170.386 70.9149 172.003 64.0885C165.882 59.0238 158.606 55.8308 150.637 55.0601L159.876 80.3838Z" fill="#1F78D1"/>
<path d="M172.927 58.9133V57.7021C172.927 42.618 160.338 30.6167 144.862 30.6167C129.386 30.6167 116.566 42.618 116.566 57.7021V58.9133C124.766 53.0778 134.583 49.8848 144.862 49.8848C154.91 49.8848 164.727 53.0778 172.927 58.9133Z" fill="#1F78D1"/>
</svg>
