<svg xmlns="http://www.w3.org/2000/svg" version="1.1" xmlns:xlink="http://www.w3.org/1999/xlink" xmlns:svgjs="http://svgjs.dev/svgjs" width="41" height="40"><svg width="41" height="40" viewBox="0 0 41 40" fill="none" xmlns="http://www.w3.org/2000/svg">
<path d="M27.7926 19.4195C27.874 19.4969 27.9388 19.59 27.983 19.6932C28.0273 19.7964 28.0501 19.9075 28.0501 20.0198C28.0501 20.132 28.0273 20.2432 27.983 20.3463C27.9388 20.4495 27.874 20.5426 27.7926 20.62L21.203 27.2105C21.1265 27.2934 21.0338 27.3596 20.9305 27.4049C20.8272 27.4502 20.7156 27.4735 20.6028 27.4735C20.49 27.4735 20.3785 27.4502 20.2752 27.4049C20.1719 27.3596 20.0791 27.2934 20.0027 27.2105L16.7018 23.9212L13.389 20.596C13.3061 20.5195 13.2399 20.4267 13.1946 20.3234C13.1494 20.2201 13.126 20.1086 13.126 19.9958C13.126 19.883 13.1494 19.7714 13.1946 19.6681C13.2399 19.5648 13.3061 19.472 13.389 19.3955L19.9787 12.805C20.0551 12.7221 20.1479 12.6559 20.2512 12.6106C20.3545 12.5654 20.466 12.542 20.5788 12.542C20.6916 12.542 20.8032 12.5654 20.9064 12.6106C21.0097 12.6559 21.1025 12.7221 21.179 12.805L24.4798 16.0943L27.7926 19.4195Z" fill="#AD2E2E"></path>
<path d="M34.5503 25.2662C34.3932 25.4201 34.182 25.5063 33.9621 25.5063H28.1286C27.9631 25.5097 27.8003 25.4634 27.6613 25.3734C27.5223 25.2834 27.4134 25.1538 27.3488 25.0013C27.2842 24.8488 27.2668 24.6804 27.2988 24.518C27.3309 24.3555 27.4109 24.2063 27.5285 24.0897L30.9013 20.5844C30.9827 20.507 31.0475 20.4139 31.0917 20.3107C31.136 20.2076 31.1588 20.0965 31.1588 19.9842C31.1588 19.8719 31.136 19.7608 31.0917 19.6576C31.0475 19.5544 30.9827 19.4613 30.9013 19.384L27.5285 15.8786C27.4109 15.7621 27.3309 15.6129 27.2988 15.4504C27.2668 15.2879 27.2842 15.1196 27.3488 14.9671C27.4134 14.8146 27.5223 14.6849 27.6613 14.5949C27.8003 14.5049 27.9631 14.4586 28.1286 14.4621H33.9621C34.182 14.4621 34.3932 14.5483 34.5503 14.7022L39.2315 19.3719C39.3128 19.4493 39.3776 19.5424 39.4218 19.6456C39.4661 19.7488 39.4889 19.8599 39.4889 19.9722C39.4889 20.0845 39.4661 20.1956 39.4218 20.2987C39.3776 20.4019 39.3128 20.495 39.2315 20.5724L34.5503 25.2662Z" fill="#D95759"></path>
<path d="M6.57187 25.266C6.73334 25.4207 6.94845 25.5067 7.17203 25.5061H13.0055C13.1686 25.5039 13.3275 25.4543 13.4628 25.3633C13.5982 25.2723 13.7042 25.1439 13.7678 24.9937C13.8314 24.8435 13.85 24.6781 13.8212 24.5175C13.7924 24.357 13.7175 24.2083 13.6056 24.0896L10.2328 20.5842C10.1514 20.5069 10.0867 20.4138 10.0424 20.3106C9.99816 20.2074 9.97533 20.0963 9.97533 19.984C9.97533 19.8717 9.99816 19.7606 10.0424 19.6574C10.0867 19.5543 10.1514 19.4612 10.2328 19.3838L13.6056 15.8785C13.7175 15.7597 13.7924 15.611 13.8212 15.4505C13.85 15.29 13.8314 15.1245 13.7678 14.9743C13.7042 14.8241 13.5982 14.6957 13.4628 14.6047C13.3275 14.5137 13.1686 14.4641 13.0055 14.4619H7.17203C6.94845 14.4613 6.73334 14.5474 6.57187 14.702L1.90267 19.3718C1.81975 19.4482 1.75356 19.541 1.70829 19.6443C1.66302 19.7476 1.63965 19.8592 1.63965 19.972C1.63965 20.0848 1.66302 20.1964 1.70829 20.2997C1.75356 20.403 1.81975 20.4958 1.90267 20.5722L6.57187 25.266Z" fill="#D95759"></path>
<path d="M12.9573 4.96613C12.9529 4.74475 12.8624 4.53379 12.7052 4.37791L8.58819 0.248345C8.47149 0.13382 8.32392 0.0558356 8.16357 0.0239473C8.00321 -0.00794104 7.83702 0.00765283 7.68539 0.0688205C7.53377 0.129988 7.40329 0.234072 7.30993 0.368311C7.21658 0.50255 7.16441 0.661115 7.15982 0.824567L7.06379 5.6864C7.06069 5.90194 6.9737 6.10777 6.8213 6.26019C6.6689 6.41261 6.4631 6.49961 6.2476 6.50271L1.38636 6.64676C1.22032 6.64568 1.0578 6.69453 0.919873 6.78698C0.781943 6.87942 0.674967 7.0112 0.612856 7.16521C0.550744 7.31921 0.536363 7.48833 0.571555 7.65062C0.606747 7.81291 0.689898 7.96087 0.81022 8.0753L4.98727 12.1448C5.06192 12.2261 5.15293 12.2905 5.25431 12.334C5.35569 12.3774 5.46515 12.3989 5.57543 12.3969H12.1891C12.4119 12.3969 12.6257 12.3084 12.7832 12.1508C12.9408 11.9932 13.0293 11.7795 13.0293 11.5566L12.9573 4.96613Z" fill="#E28389"></path>
<path d="M12.9573 35.0491C12.9529 35.2705 12.8624 35.4814 12.7052 35.6373L8.58819 39.7669C8.47149 39.8814 8.32392 39.9594 8.16357 39.9913C8.00321 40.0232 7.83702 40.0076 7.68539 39.9464C7.53377 39.8852 7.40329 39.7811 7.30993 39.6469C7.21658 39.5127 7.16441 39.3541 7.15982 39.1907L7.06379 34.3888C7.06069 34.1733 6.9737 33.9675 6.8213 33.8151C6.6689 33.6626 6.4631 33.5756 6.2476 33.5725L1.38636 33.4165C1.22032 33.4176 1.0578 33.3687 0.919873 33.2763C0.781943 33.1838 0.674967 33.052 0.612856 32.898C0.550744 32.744 0.536363 32.5749 0.571555 32.4126C0.606747 32.2503 0.689898 32.1024 0.81022 31.9879L4.98727 27.8704C5.06192 27.7892 5.15293 27.7247 5.25431 27.6813C5.35569 27.6378 5.46515 27.6163 5.57543 27.6183H12.1891C12.4119 27.6183 12.6257 27.7068 12.7832 27.8644C12.9408 28.022 13.0293 28.2357 13.0293 28.4586L12.9573 35.0491Z" fill="#E28389"></path>
<path d="M28.1773 4.96613C28.1773 4.74619 28.2635 4.53501 28.4174 4.37791L32.5944 0.248345C32.7111 0.13382 32.8587 0.0558356 33.0191 0.0239473C33.1794 -0.00794104 33.3456 0.00765283 33.4972 0.0688205C33.6489 0.129988 33.7793 0.234072 33.8727 0.368311C33.9661 0.50255 34.0182 0.661115 34.0228 0.824567L34.1068 5.6864C34.113 5.90302 34.2026 6.10888 34.3569 6.26099C34.5113 6.4131 34.7184 6.4997 34.935 6.50271L39.7363 6.59874C39.8997 6.60333 40.0582 6.65551 40.1925 6.74888C40.3267 6.84224 40.4308 6.97275 40.4919 7.12439C40.5531 7.27604 40.5687 7.44223 40.5368 7.60261C40.5049 7.76298 40.4269 7.91058 40.3124 8.02729L36.1954 12.1448C36.1198 12.2249 36.0286 12.2885 35.9274 12.3319C35.8263 12.3753 35.7173 12.3974 35.6072 12.3969H28.9935C28.7707 12.3969 28.557 12.3084 28.3994 12.1508C28.2418 11.9932 28.1533 11.7795 28.1533 11.5566L28.1773 4.96613Z" fill="#E28389"></path>
<path d="M28.1773 35.049C28.1773 35.2689 28.2635 35.4801 28.4174 35.6372L32.5944 39.7668C32.7111 39.8813 32.8587 39.9593 33.0191 39.9912C33.1794 40.023 33.3456 40.0075 33.4972 39.9463C33.6489 39.8851 33.7793 39.781 33.8727 39.6468C33.9661 39.5126 34.0182 39.354 34.0228 39.1905L34.1068 34.3887C34.113 34.1721 34.2026 33.9663 34.3569 33.8141C34.5113 33.662 34.7184 33.5754 34.935 33.5724L39.7363 33.4764C39.8997 33.4718 40.0582 33.4196 40.1925 33.3263C40.3267 33.2329 40.4308 33.1024 40.4919 32.9507C40.5531 32.7991 40.5687 32.6329 40.5368 32.4725C40.5049 32.3121 40.4269 32.1646 40.3124 32.0478L36.1954 27.8703C36.1198 27.7902 36.0286 27.7266 35.9274 27.6832C35.8263 27.6398 35.7173 27.6177 35.6072 27.6182H28.9935C28.7707 27.6182 28.557 27.7067 28.3994 27.8643C28.2418 28.0219 28.1533 28.2356 28.1533 28.4585L28.1773 35.049Z" fill="#E28389"></path>
<path d="M15.3095 33.9926C15.2322 33.9156 15.1711 33.8239 15.1299 33.7228C15.0886 33.6218 15.0681 33.5135 15.0694 33.4044V27.5702C15.0716 27.4071 15.1212 27.2482 15.2122 27.1128C15.3032 26.9774 15.4316 26.8714 15.5817 26.8078C15.7319 26.7442 15.8973 26.7256 16.0579 26.7544C16.2184 26.7832 16.3671 26.8581 16.4858 26.97L19.9787 30.3432C20.0569 30.4231 20.1503 30.4865 20.2533 30.5298C20.3564 30.5731 20.467 30.5955 20.5788 30.5955C20.6906 30.5955 20.8012 30.5731 20.9043 30.5298C21.0073 30.4865 21.1007 30.4231 21.179 30.3432L24.6838 26.97C24.8025 26.8581 24.9512 26.7832 25.1117 26.7544C25.2723 26.7256 25.4377 26.7442 25.5879 26.8078C25.738 26.8714 25.8664 26.9774 25.9574 27.1128C26.0484 27.2482 26.098 27.4071 26.1002 27.5702V33.4044C26.0993 33.5143 26.0765 33.6228 26.0333 33.7238C25.99 33.8248 25.9271 33.9162 25.8481 33.9926L21.191 38.6744C21.1136 38.7557 21.0205 38.8205 20.9173 38.8648C20.8142 38.9091 20.7031 38.9319 20.5908 38.9319C20.4785 38.9319 20.3674 38.9091 20.2643 38.8648C20.1611 38.8205 20.068 38.7557 19.9907 38.6744L15.3095 33.9926Z" fill="#D95759"></path>
<path d="M15.3095 6.02239C15.2322 6.09941 15.1711 6.19115 15.1299 6.29219C15.0886 6.39322 15.0681 6.5015 15.0694 6.61062V12.4448C15.0716 12.6079 15.1212 12.7668 15.2122 12.9022C15.3032 13.0376 15.4316 13.1436 15.5817 13.2072C15.7319 13.2708 15.8973 13.2894 16.0579 13.2606C16.2184 13.2318 16.3671 13.1569 16.4858 13.045L19.9787 9.67177C20.0569 9.59192 20.1503 9.52848 20.2533 9.48517C20.3564 9.44186 20.467 9.41955 20.5788 9.41955C20.6906 9.41955 20.8012 9.44186 20.9043 9.48517C21.0073 9.52848 21.1007 9.59192 21.179 9.67177L24.6838 13.045C24.8025 13.1569 24.9512 13.2318 25.1117 13.2606C25.2723 13.2894 25.4377 13.2708 25.5879 13.2072C25.738 13.1436 25.8664 13.0376 25.9574 12.9022C26.0484 12.7668 26.098 12.6079 26.1002 12.4448V6.64663C26.0993 6.53676 26.0765 6.42817 26.0333 6.32719C25.99 6.2262 25.9271 6.13483 25.8481 6.0584L21.191 1.37664C21.1136 1.29528 21.0205 1.2305 20.9173 1.18623C20.8142 1.14197 20.7031 1.11914 20.5908 1.11914C20.4785 1.11914 20.3674 1.14197 20.2643 1.18623C20.1611 1.2305 20.068 1.29528 19.9907 1.37664L15.3095 6.02239Z" fill="#D95759"></path>
</svg><style>@media (prefers-color-scheme: light) { :root { filter: none; } }
@media (prefers-color-scheme: dark) { :root { filter: none; } }
</style></svg>