<svg width="228" height="309" viewBox="0 0 228 309" fill="none" xmlns="http://www.w3.org/2000/svg">
<path d="M128.671 149.956C129.3 150.553 129.8 151.273 130.142 152.07C130.484 152.867 130.66 153.725 130.66 154.593C130.66 155.46 130.484 156.318 130.142 157.115C129.8 157.912 129.3 158.632 128.671 159.229L77.7659 210.141C77.1754 210.782 76.4587 211.293 75.6607 211.643C74.8628 211.992 74.0009 212.173 73.1297 212.173C72.2585 212.173 71.3968 211.992 70.5988 211.643C69.8009 211.293 69.084 210.782 68.4936 210.141L42.9946 184.731L17.403 159.044C16.7624 158.453 16.2511 157.736 15.9014 156.938C15.5517 156.14 15.3711 155.278 15.3711 154.407C15.3711 153.536 15.5517 152.674 15.9014 151.876C16.2511 151.078 16.7624 150.361 17.403 149.77L68.3082 98.8588C68.8987 98.2181 69.6154 97.7067 70.4134 97.357C71.2113 97.0072 72.0732 96.8267 72.9444 96.8267C73.8156 96.8267 74.6773 97.0072 75.4753 97.357C76.2732 97.7067 76.9901 98.2181 77.5806 98.8588L103.08 124.268L128.671 149.956Z" fill="#E9BFB3"/>
<path d="M180.874 195.119C179.661 196.308 178.03 196.974 176.331 196.973H131.267C129.988 197 128.731 196.643 127.657 195.947C126.583 195.252 125.742 194.251 125.243 193.073C124.744 191.895 124.61 190.594 124.857 189.339C125.104 188.083 125.722 186.931 126.631 186.031L152.686 158.952C153.315 158.354 153.815 157.635 154.157 156.838C154.499 156.041 154.675 155.183 154.675 154.315C154.675 153.448 154.499 152.59 154.157 151.793C153.815 150.995 153.315 150.276 152.686 149.679L126.631 122.6C125.722 121.699 125.104 120.547 124.857 119.292C124.61 118.037 124.744 116.736 125.243 115.558C125.742 114.38 126.583 113.379 127.657 112.683C128.731 111.988 129.988 111.631 131.267 111.657H176.331C178.03 111.657 179.661 112.323 180.874 113.512L217.037 149.586C217.665 150.183 218.165 150.903 218.507 151.7C218.849 152.497 219.026 153.355 219.026 154.223C219.026 155.09 218.849 155.948 218.507 156.745C218.165 157.542 217.665 158.262 217.037 158.859L180.874 195.119Z" fill="#E9BFB3"/>
<path d="M-35.2618 195.117C-34.0145 196.312 -32.3528 196.977 -30.6257 196.972H14.4378C15.6976 196.955 16.9252 196.572 17.9708 195.869C19.0165 195.166 19.835 194.174 20.3266 193.014C20.8181 191.854 20.9614 190.575 20.739 189.335C20.5166 188.095 19.938 186.946 19.074 186.029L-6.98129 158.951C-7.60972 158.353 -8.10998 157.634 -8.45188 156.837C-8.79379 156.04 -8.97015 155.181 -8.97015 154.314C-8.97015 153.447 -8.79379 152.588 -8.45188 151.791C-8.10998 150.994 -7.60972 150.275 -6.98129 149.677L19.074 122.599C19.938 121.681 20.5166 120.533 20.739 119.293C20.9614 118.052 20.8181 116.774 20.3266 115.614C19.835 114.454 19.0165 113.462 17.9708 112.759C16.9252 112.056 15.6976 111.673 14.4378 111.656H-30.6257C-32.3528 111.651 -34.0145 112.316 -35.2618 113.51L-71.3314 149.584C-71.972 150.175 -72.4833 150.892 -72.833 151.69C-73.1827 152.488 -73.3633 153.35 -73.3633 154.221C-73.3633 155.092 -73.1827 155.954 -72.833 156.752C-72.4833 157.55 -71.972 158.267 -71.3314 158.858L-35.2618 195.117Z" fill="#E9BFB3"/>
<path d="M14.0635 38.303C14.0292 36.5929 13.3308 34.9632 12.1162 33.759L-19.6879 1.85812C-20.5893 0.973404 -21.7293 0.370979 -22.968 0.124641C-24.2068 -0.121696 -25.4906 -0.00123341 -26.6619 0.471287C-27.8332 0.943807 -28.8412 1.74785 -29.5624 2.78485C-30.2835 3.82185 -30.6866 5.04676 -30.722 6.30943L-31.4638 43.8671C-31.4877 45.5321 -32.1597 47.1222 -33.337 48.2996C-34.5143 49.4771 -36.1041 50.1491 -37.7689 50.1731L-75.322 51.2859C-76.6046 51.2775 -77.8601 51.6549 -78.9256 52.369C-79.9911 53.0832 -80.8175 54.1012 -81.2973 55.2909C-81.7771 56.4806 -81.8882 57.787 -81.6163 59.0407C-81.3445 60.2944 -80.7021 61.4374 -79.7726 62.3214L-47.5049 93.7586C-46.9283 94.3859 -46.2252 94.8839 -45.4421 95.2195C-44.6589 95.5552 -43.8133 95.721 -42.9614 95.706H8.12919C9.85062 95.706 11.5016 95.0221 12.7188 93.8047C13.936 92.5873 14.6198 90.9362 14.6198 89.2145L14.0635 38.303Z" fill="#E9BFB3"/>
<path d="M14.0635 270.696C14.0292 272.407 13.3308 274.036 12.1162 275.24L-19.6879 307.141C-20.5893 308.026 -21.7293 308.628 -22.968 308.875C-24.2068 309.121 -25.4906 309.001 -26.6619 308.528C-27.8332 308.056 -28.8412 307.252 -29.5624 306.215C-30.2835 305.178 -30.6866 303.953 -30.722 302.69L-31.4638 265.596C-31.4877 263.931 -32.1597 262.341 -33.337 261.163C-34.5143 259.986 -36.1041 259.314 -37.7689 259.29L-75.322 258.084C-76.6046 258.093 -77.8601 257.715 -78.9256 257.001C-79.9911 256.287 -80.8175 255.269 -81.2973 254.079C-81.7771 252.89 -81.8882 251.583 -81.6163 250.33C-81.3445 249.076 -80.7021 247.933 -79.7726 247.049L-47.5049 215.241C-46.9283 214.613 -46.2252 214.116 -45.4421 213.78C-44.6589 213.444 -43.8133 213.278 -42.9614 213.293H8.12919C9.85062 213.293 11.5016 213.977 12.7188 215.195C13.936 216.412 14.6198 218.063 14.6198 219.785L14.0635 270.696Z" fill="#E9BFB3"/>
<path d="M131.639 38.303C131.638 36.604 132.304 34.9726 133.493 33.759L165.761 1.85812C166.662 0.973404 167.802 0.370979 169.041 0.124641C170.28 -0.121696 171.564 -0.00123341 172.735 0.471287C173.906 0.943807 174.914 1.74785 175.635 2.78485C176.356 3.82185 176.759 5.04676 176.795 6.30943L177.444 43.8671C177.492 45.5405 178.184 47.1307 179.376 48.3058C180.568 49.4809 182.168 50.1499 183.842 50.1731L220.931 50.915C222.194 50.9504 223.419 51.3534 224.455 52.0747C225.492 52.796 226.296 53.8041 226.769 54.9756C227.241 56.147 227.362 57.4309 227.115 58.6698C226.869 59.9087 226.267 61.0489 225.382 61.9505L193.578 93.7586C192.994 94.3768 192.29 94.8687 191.508 95.2037C190.727 95.5386 189.885 95.7096 189.034 95.706H137.944C136.222 95.706 134.571 95.0221 133.354 93.8047C132.137 92.5873 131.453 90.9362 131.453 89.2145L131.639 38.303Z" fill="#E9BFB3"/>
<path d="M131.639 270.697C131.638 272.396 132.304 274.028 133.493 275.241L165.761 307.142C166.662 308.027 167.802 308.629 169.041 308.876C170.28 309.122 171.564 309.002 172.735 308.529C173.906 308.057 174.914 307.253 175.635 306.216C176.356 305.179 176.759 303.954 176.795 302.691L177.444 265.597C177.492 263.924 178.184 262.333 179.376 261.158C180.568 259.983 182.168 259.314 183.842 259.291L220.931 258.549C222.194 258.514 223.419 258.111 224.455 257.389C225.492 256.668 226.296 255.66 226.769 254.489C227.241 253.317 227.362 252.033 227.115 250.794C226.869 249.555 226.267 248.415 225.382 247.514L193.578 215.242C192.994 214.624 192.29 214.132 191.508 213.797C190.727 213.462 189.885 213.291 189.034 213.294H137.944C136.222 213.294 134.571 213.978 133.354 215.196C132.137 216.413 131.453 218.064 131.453 219.786L131.639 270.697Z" fill="#E9BFB3"/>
<path d="M32.2379 262.536C31.6408 261.941 31.169 261.232 30.8505 260.452C30.5319 259.671 30.373 258.835 30.3833 257.992V212.923C30.4003 211.663 30.7837 210.435 31.4864 209.389C32.1892 208.344 33.181 207.525 34.341 207.033C35.5011 206.542 36.7791 206.399 38.0192 206.621C39.2593 206.843 40.4078 207.422 41.3247 208.286L68.3073 234.345C68.9116 234.962 69.6329 235.452 70.429 235.786C71.2251 236.121 72.08 236.293 72.9435 236.293C73.807 236.293 74.6617 236.121 75.4578 235.786C76.2539 235.452 76.9753 234.962 77.5796 234.345L104.655 208.286C105.572 207.422 106.72 206.843 107.96 206.621C109.2 206.399 110.478 206.542 111.638 207.033C112.798 207.525 113.79 208.344 114.493 209.389C115.196 210.435 115.579 211.663 115.596 212.923V257.992C115.589 258.841 115.413 259.68 115.079 260.46C114.745 261.24 114.259 261.946 113.649 262.536L77.6723 298.703C77.0747 299.331 76.3555 299.832 75.5585 300.174C74.7615 300.516 73.9034 300.692 73.0361 300.692C72.1689 300.692 71.3107 300.516 70.5137 300.174C69.7168 299.832 68.9976 299.331 68.4 298.703L32.2379 262.536Z" fill="#E9BFB3"/>
<path d="M32.2379 46.4631C31.6408 47.0581 31.169 47.7667 30.8505 48.5472C30.5319 49.3277 30.373 50.1642 30.3833 51.0071V96.0763C30.4003 97.3362 30.7837 98.564 31.4864 99.6097C32.1892 100.656 33.181 101.474 34.341 101.966C35.5011 102.457 36.7791 102.601 38.0192 102.378C39.2593 102.156 40.4078 101.577 41.3247 100.713L68.3073 74.6545C68.9116 74.0377 69.6329 73.5476 70.429 73.2131C71.2251 72.8785 72.08 72.7062 72.9435 72.7062C73.807 72.7062 74.6617 72.8785 75.4578 73.2131C76.2539 73.5476 76.9753 74.0377 77.5796 74.6545L104.655 100.713C105.572 101.577 106.72 102.156 107.96 102.378C109.2 102.601 110.478 102.457 111.638 101.966C112.798 101.474 113.79 100.656 114.493 99.6097C115.196 98.564 115.579 97.3362 115.596 96.0763V51.2853C115.589 50.4366 115.413 49.5977 115.079 48.8176C114.745 48.0375 114.259 47.3317 113.649 46.7413L77.6723 10.5746C77.0747 9.94611 76.3555 9.44569 75.5585 9.10374C74.7615 8.76179 73.9034 8.58545 73.0361 8.58545C72.1689 8.58545 71.3107 8.76179 70.5137 9.10374C69.7168 9.44569 68.9976 9.94611 68.4 10.5746L32.2379 46.4631Z" fill="#E9BFB3"/>
</svg>
