<svg width="551" height="600" viewBox="0 0 551 600" fill="none" xmlns="http://www.w3.org/2000/svg">
<path d="M408.688 291.176C409.908 292.337 410.879 293.733 411.543 295.281C412.207 296.829 412.549 298.495 412.549 300.179C412.549 301.864 412.207 303.53 411.543 305.078C410.879 306.626 409.908 308.022 408.688 309.183L309.842 408.04C308.696 409.284 307.304 410.277 305.755 410.956C304.205 411.635 302.532 411.986 300.84 411.986C299.148 411.986 297.475 411.635 295.926 410.956C294.376 410.277 292.984 409.284 291.838 408.04L242.325 358.702L192.633 308.823C191.389 307.676 190.396 306.284 189.717 304.734C189.038 303.185 188.688 301.511 188.688 299.819C188.688 298.127 189.038 296.454 189.717 294.904C190.396 293.355 191.389 291.963 192.633 290.816L291.478 191.959C292.625 190.715 294.016 189.722 295.566 189.042C297.115 188.363 298.789 188.013 300.48 188.013C302.172 188.013 303.845 188.363 305.395 189.042C306.944 189.722 308.336 190.715 309.483 191.959L358.995 241.297L408.688 291.176Z" fill="#FCE8DE"/>
<path d="M510.061 378.871C507.705 381.179 504.537 382.472 501.238 382.472H413.736C411.253 382.524 408.811 381.83 406.726 380.479C404.641 379.129 403.008 377.185 402.039 374.897C401.07 372.61 400.809 370.085 401.289 367.647C401.77 365.21 402.97 362.972 404.734 361.224L455.327 308.644C456.547 307.483 457.519 306.087 458.183 304.539C458.846 302.991 459.189 301.325 459.189 299.641C459.189 297.957 458.846 296.29 458.183 294.742C457.519 293.194 456.547 291.798 455.327 290.637L404.734 238.057C402.97 236.309 401.77 234.071 401.289 231.634C400.809 229.197 401.07 226.671 402.039 224.384C403.008 222.097 404.641 220.152 406.726 218.802C408.811 217.452 411.253 216.758 413.736 216.809H501.238C504.537 216.809 507.705 218.102 510.061 220.411L580.279 290.457C581.499 291.618 582.47 293.014 583.134 294.562C583.798 296.11 584.141 297.776 584.141 299.461C584.141 301.145 583.798 302.811 583.134 304.359C582.47 305.907 581.499 307.303 580.279 308.464L510.061 378.871Z" fill="#FCE8DE"/>
<path d="M90.3662 378.868C92.7882 381.188 96.0149 382.479 99.3685 382.469H186.87C189.316 382.436 191.7 381.692 193.731 380.327C195.761 378.962 197.35 377.036 198.305 374.783C199.259 372.531 199.537 370.049 199.106 367.641C198.674 365.232 197.55 363.002 195.873 361.221L145.28 308.641C144.06 307.481 143.088 306.084 142.424 304.536C141.76 302.989 141.418 301.322 141.418 299.638C141.418 297.954 141.76 296.287 142.424 294.74C143.088 293.192 144.06 291.795 145.28 290.635L195.873 238.055C197.55 236.274 198.674 234.044 199.106 231.635C199.537 229.227 199.259 226.745 198.305 224.493C197.35 222.24 195.761 220.314 193.731 218.949C191.7 217.584 189.316 216.84 186.87 216.807H99.3685C96.0149 216.797 92.7882 218.088 90.3662 220.408L20.3282 290.455C19.0843 291.601 18.0915 292.993 17.4125 294.543C16.7334 296.093 16.3828 297.766 16.3828 299.458C16.3828 301.15 16.7334 302.823 17.4125 304.373C18.0915 305.923 19.0843 307.315 20.3282 308.461L90.3662 378.868Z" fill="#FCE8DE"/>
<path d="M186.154 74.3747C186.088 71.0541 184.732 67.8897 182.373 65.5514L120.618 3.60799C118.867 1.89011 116.654 0.720347 114.248 0.242022C111.843 -0.236303 109.35 -0.00239498 107.076 0.91512C104.801 1.83264 102.844 3.39389 101.444 5.40748C100.044 7.42107 99.261 9.79954 99.1922 12.2513L97.7518 85.1789C97.7053 88.4118 96.4005 91.4993 94.1144 93.7856C91.8284 96.072 88.7415 97.377 85.5089 97.4235L12.5903 99.5843C10.0998 99.568 7.66197 100.301 5.59302 101.687C3.52407 103.074 1.91943 105.051 0.987755 107.361C0.0560797 109.671 -0.159638 112.208 0.368244 114.642C0.896126 117.076 2.14338 119.296 3.94822 121.012L66.604 182.055C67.7237 183.274 69.0888 184.241 70.6096 184.892C72.1303 185.544 73.7721 185.866 75.4264 185.837H174.631C177.974 185.837 181.18 184.509 183.543 182.145C185.907 179.781 187.235 176.575 187.235 173.232L186.154 74.3747Z" fill="#FCE8DE"/>
<path d="M186.154 525.624C186.088 528.945 184.732 532.109 182.373 534.447L120.618 596.391C118.867 598.109 116.654 599.279 114.248 599.757C111.843 600.235 109.35 600.001 107.076 599.084C104.801 598.166 102.844 596.605 101.444 594.591C100.044 592.578 99.261 590.199 99.1922 587.748L97.7518 515.72C97.7053 512.487 96.4005 509.4 94.1144 507.114C91.8284 504.827 88.7415 503.522 85.5089 503.476L12.5903 501.135C10.0998 501.151 7.66197 500.418 5.59302 499.032C3.52407 497.645 1.91943 495.668 0.987755 493.358C0.0560797 491.048 -0.159638 488.511 0.368244 486.077C0.896126 483.643 2.14338 481.423 3.94822 479.707L66.604 417.943C67.7237 416.725 69.0888 415.758 70.6096 415.106C72.1303 414.455 73.7721 414.133 75.4264 414.162H174.631C177.974 414.162 181.18 415.49 183.543 417.854C185.907 420.218 187.235 423.424 187.235 426.767L186.154 525.624Z" fill="#FCE8DE"/>
<path d="M414.45 74.3747C414.45 71.0757 415.742 67.9079 418.051 65.5514L480.707 3.60799C482.457 1.89011 484.671 0.720347 487.076 0.242022C489.481 -0.236303 491.974 -0.00239498 494.249 0.91512C496.523 1.83264 498.48 3.39389 499.88 5.40748C501.281 7.42107 502.063 9.79954 502.132 12.2513L503.392 85.1789C503.485 88.4281 504.829 91.516 507.144 93.7977C509.459 96.0793 512.566 97.3784 515.816 97.4235L587.834 98.864C590.286 98.9328 592.664 99.7154 594.677 101.116C596.69 102.516 598.251 104.474 599.169 106.749C600.086 109.023 600.32 111.516 599.842 113.922C599.364 116.328 598.194 118.541 596.476 120.292L534.72 182.055C533.587 183.256 532.219 184.211 530.701 184.861C529.184 185.512 527.549 185.844 525.898 185.837H426.693C423.35 185.837 420.145 184.509 417.781 182.145C415.418 179.781 414.09 176.575 414.09 173.232L414.45 74.3747Z" fill="#FCE8DE"/>
<path d="M414.45 525.627C414.45 528.926 415.742 532.094 418.051 534.451L480.707 596.394C482.457 598.112 484.671 599.282 487.076 599.76C489.481 600.238 491.974 600.004 494.249 599.087C496.523 598.169 498.48 596.608 499.88 594.594C501.281 592.581 502.063 590.202 502.132 587.751L503.392 515.724C503.485 512.474 504.829 509.386 507.144 507.105C509.459 504.823 512.566 503.524 515.816 503.479L587.834 502.038C590.286 501.97 592.664 501.187 594.677 499.786C596.69 498.386 598.251 496.428 599.169 494.154C600.086 491.879 600.32 489.386 599.842 486.98C599.364 484.575 598.194 482.361 596.476 480.61L534.72 417.947C533.587 416.746 532.219 415.791 530.701 415.14C529.184 414.49 527.549 414.158 525.898 414.165H426.693C423.35 414.165 420.145 415.493 417.781 417.857C415.418 420.221 414.09 423.427 414.09 426.77L414.45 525.627Z" fill="#FCE8DE"/>
<path d="M221.442 509.777C220.282 508.622 219.366 507.245 218.748 505.73C218.129 504.214 217.821 502.59 217.841 500.954V413.44C217.874 410.994 218.618 408.61 219.983 406.579C221.347 404.549 223.273 402.959 225.526 402.005C227.778 401.05 230.26 400.772 232.668 401.204C235.076 401.636 237.306 402.759 239.086 404.437L291.48 455.036C292.653 456.234 294.054 457.186 295.599 457.835C297.145 458.485 298.805 458.819 300.482 458.819C302.159 458.819 303.818 458.485 305.364 457.835C306.91 457.186 308.311 456.234 309.484 455.036L362.057 404.437C363.838 402.759 366.068 401.636 368.476 401.204C370.884 400.772 373.365 401.05 375.618 402.005C377.87 402.959 379.796 404.549 381.161 406.579C382.526 408.61 383.27 410.994 383.303 413.44V500.954C383.289 502.602 382.948 504.23 382.299 505.745C381.65 507.26 380.706 508.63 379.522 509.777L309.664 580.003C308.504 581.224 307.107 582.196 305.56 582.86C304.012 583.524 302.346 583.866 300.662 583.866C298.978 583.866 297.312 583.524 295.764 582.86C294.216 582.196 292.82 581.224 291.66 580.003L221.442 509.777Z" fill="#FCE8DE"/>
<path d="M221.442 90.2187C220.282 91.374 219.366 92.7501 218.748 94.2656C218.129 95.7811 217.821 97.4053 217.841 99.0421V186.555C217.874 189.002 218.618 191.385 219.983 193.416C221.347 195.447 223.273 197.036 225.526 197.991C227.778 198.945 230.26 199.224 232.668 198.792C235.076 198.36 237.306 197.236 239.086 195.559L291.48 144.959C292.653 143.762 294.054 142.81 295.599 142.16C297.145 141.511 298.805 141.176 300.482 141.176C302.159 141.176 303.818 141.511 305.364 142.16C306.91 142.81 308.311 143.762 309.484 144.959L362.057 195.559C363.838 197.236 366.068 198.36 368.476 198.792C370.884 199.224 373.365 198.945 375.618 197.991C377.87 197.036 379.796 195.447 381.161 193.416C382.526 191.385 383.27 189.002 383.303 186.555V99.5823C383.289 97.9343 382.948 96.3054 382.299 94.7906C381.65 93.2758 380.706 91.9053 379.522 90.7589L309.664 20.5324C308.504 19.312 307.107 18.3403 305.56 17.6763C304.012 17.0123 302.346 16.6699 300.662 16.6699C298.978 16.6699 297.312 17.0123 295.764 17.6763C294.216 18.3403 292.82 19.312 291.66 20.5324L221.442 90.2187Z" fill="#FCE8DE"/>
</svg>
