<svg xmlns="http://www.w3.org/2000/svg" width="178" height="41" fill="none" xmlns:v="https://vecta.io/nano"><path d="M27.255 20.257a.83.83 0 0 1 .257.6.83.83 0 0 1-.257.6l-6.59 6.59c-.076.083-.169.149-.273.194s-.215.069-.328.069-.224-.023-.328-.069-.196-.112-.273-.194l-3.301-3.289-3.313-3.325c-.083-.076-.149-.169-.194-.273s-.069-.215-.069-.328a.82.82 0 0 1 .069-.328c.045-.103.112-.196.194-.272l6.59-6.591c.076-.083.169-.149.273-.194s.215-.069.328-.069.224.023.328.069.196.111.272.194l3.301 3.289 3.313 3.325z" fill="#2c1b1b"/><path d="M34.011 26.103a.84.84 0 0 1-.588.24H27.59a.83.83 0 0 1-.6-1.417l3.373-3.505a.83.83 0 0 0 0-1.2l-3.373-3.505a.83.83 0 0 1 .6-1.416h5.833a.84.84 0 0 1 .588.24l4.681 4.67a.83.83 0 0 1 0 1.2l-4.681 4.694zm-27.979 0a.86.86 0 0 0 .6.24h5.833a.84.84 0 0 0 .6-1.416l-3.373-3.505a.82.82 0 0 1-.19-.274.83.83 0 0 1 .19-.927l3.373-3.505a.84.84 0 0 0-.6-1.416H6.632a.86.86 0 0 0-.6.24l-4.669 4.67a.8.8 0 0 0-.194.273c-.045.104-.069.215-.069.328a.81.81 0 0 0 .069.328.81.81 0 0 0 .194.272l4.669 4.694zm6.386-20.3a.85.85 0 0 0-.252-.588l-4.117-4.13a.84.84 0 0 0-1.429.576l-.096 4.862a.83.83 0 0 1-.816.816l-4.861.144a.83.83 0 0 0-.774.518.83.83 0 0 0-.041.485.83.83 0 0 0 .239.425l4.177 4.07a.78.78 0 0 0 .588.252h6.614a.84.84 0 0 0 .84-.84l-.072-6.59zm0 30.084a.85.85 0 0 1-.252.588l-4.117 4.13a.84.84 0 0 1-1.429-.576l-.096-4.802a.83.83 0 0 0-.816-.816l-4.861-.156a.83.83 0 0 1-.774-.518.83.83 0 0 1-.041-.485.83.83 0 0 1 .239-.425l4.177-4.117a.78.78 0 0 1 .588-.252h6.614a.84.84 0 0 1 .84.84l-.072 6.59zM27.637 5.803a.84.84 0 0 1 .24-.588l4.177-4.13a.84.84 0 0 1 1.429.576l.084 4.862a.84.84 0 0 0 .828.816l4.801.096a.84.84 0 0 1 .576 1.429l-4.117 4.118c-.076.08-.167.144-.268.187a.8.8 0 0 1-.32.065h-6.614a.84.84 0 0 1-.84-.84l.024-6.59zm0 30.084a.84.84 0 0 0 .24.588l4.177 4.13a.84.84 0 0 0 1.429-.576l.084-4.802a.84.84 0 0 1 .828-.816l4.801-.096a.84.84 0 0 0 .576-1.429l-4.117-4.177c-.076-.08-.167-.144-.268-.187a.8.8 0 0 0-.32-.065h-6.614a.84.84 0 0 0-.84.84l.024 6.59zm-12.866-1.056c-.077-.077-.138-.169-.18-.27a.79.79 0 0 1-.06-.318v-5.834a.84.84 0 0 1 1.416-.6l3.493 3.373a.84.84 0 0 0 1.2 0l3.505-3.373a.84.84 0 0 1 1.416.6v5.834a.83.83 0 0 1-.252.588l-4.657 4.682a.83.83 0 0 1-1.2 0l-4.681-4.682zm0-27.972c-.077.077-.138.169-.18.27a.82.82 0 0 0-.06.318v5.834a.84.84 0 0 0 1.416.6l3.493-3.373a.84.84 0 0 1 1.2 0l3.505 3.373a.84.84 0 0 0 1.416-.6V7.484a.83.83 0 0 0-.252-.588l-4.657-4.682a.83.83 0 0 0-.927-.191.84.84 0 0 0-.274.19L14.77 6.859z" fill="#d95767"/><g fill="#2c1b1b"><path d="M141.751 27.731v.483l8.479-.046v-.483l-2.048-1.87V6.122h-.863l-5.752 2.013v.61l2.198 1.947v15.136l-2.014 1.903zm-91.501.483v-.483l2.013-1.912V17.65l-2.197-1.975v-.61l5.752-1.887h.863v12.628l2.048 1.878v.483l-8.478.046zm9.848 0v-.483l2.013-1.903v-8.12l-2.197-2.033v-.61l5.671-1.887h.897l-.219 2.611h.124a8.28 8.28 0 0 1 2.632-2.009 8.3 8.3 0 0 1 3.238-.821c.682-.044 1.365.056 2.005.294a4.86 4.86 0 0 1 1.711 1.087 5.52 5.52 0 0 1 1.3 3.911v7.586l2.013 1.847v.483l-8.248.046v-.483l1.898-1.917v-6.527c.077-.911-.172-1.82-.702-2.565a2.89 2.89 0 0 0-2.301-.782 5.21 5.21 0 0 0-2.105.414 5.74 5.74 0 0 0-1.311.779v8.67l1.841 1.905v.483l-8.26.023zm24.388-.241a5.75 5.75 0 0 0 2.761.656 6.18 6.18 0 0 0 3.532-.989 5.05 5.05 0 0 0 2.048-2.68l-.932-.564a3.76 3.76 0 0 1-2.945 1.38 2.3 2.3 0 0 1-1.933-.863 4.33 4.33 0 0 1-.633-2.6v-6.54l5.016.857.437-.322v-3.451h-.564l-4.889.907V9.118h-.909l-6.189 6.557v.656h2.692v7.04a5.57 5.57 0 0 0 .656 2.761 4.6 4.6 0 0 0 1.852 1.841z"/><path fill-rule="evenodd" d="M101.373 28.628a8.72 8.72 0 0 1-4.061-.909 7.04 7.04 0 0 1-2.772-2.577 7.13 7.13 0 0 1-.989-3.716c-.034-1.526.335-3.034 1.07-4.371.693-1.24 1.717-2.263 2.956-2.956a8.73 8.73 0 0 1 4.371-1.07c1.21-.048 2.406.27 3.432.912a6.01 6.01 0 0 1 2.32 2.689 9.32 9.32 0 0 1 .829 4.072H98.097c.003 1.337.454 2.638 1.286 3.693.447.493.997.881 1.612 1.136a4.5 4.5 0 0 0 1.943.337c1.566.061 3.092-.502 4.245-1.565l.897.725a6.42 6.42 0 0 1-2.692 2.646c-1.24.642-2.619.97-4.015.955zm-2.887-11.124c-.174.603-.289 1.22-.344 1.844l5.762-.797c.065-.951-.186-1.897-.713-2.692-.22-.294-.507-.53-.838-.691s-.693-.239-1.06-.23c-.617.003-1.21.241-1.657.667-.545.519-.942 1.174-1.15 1.898z"/><path d="M112.382 25.817l-2.024 1.914v.483h9.433v-.483l-2.991-2.064v-7.919c.421-.404.916-.726 1.461-.946l.584-.2 2.315 2.282h.793l2.071-5.476a5.34 5.34 0 0 0-2.232-.449c-1.004.009-1.984.313-2.818.874-.934.602-1.701 1.428-2.232 2.404h-.184l.184-3.06h-.897l-5.671 1.887v.61l2.208 2.058v8.085z"/><path d="M128.925 28.628a4.82 4.82 0 0 1-3.313-1.15 3.62 3.62 0 0 1-1.3-2.899c0-2.646 2.231-4.36 6.695-5.142l3.278-.549v-.187c.07-1.01-.238-2.01-.862-2.807a3.19 3.19 0 0 0-2.52-.978 3.84 3.84 0 0 0-1.158.173l-2.649 3.381h-.737l-1.748-4.038a8.42 8.42 0 0 1 1.898-.782 18.19 18.19 0 0 1 2.439-.518 19.47 19.47 0 0 1 2.565-.173 8.74 8.74 0 0 1 5.349 1.369 4.75 4.75 0 0 1 1.411 1.799c.317.706.456 1.478.407 2.25v6.029l1.921 1.667v.598l-4.153 1.933-.702.023-1.092-2.301h-.277a6.55 6.55 0 0 1-2.381 1.76 7.7 7.7 0 0 1-3.071.541zm3.531-7.719l1.829-.434v4.545c-.9.629-1.985.953-3.094.916a2.44 2.44 0 0 1-1.68-.552 2 2 0 0 1-.485-.719c-.107-.272-.154-.565-.136-.857-.011-.336.059-.67.203-.974a2.11 2.11 0 0 1 .625-.774 7.08 7.08 0 0 1 2.738-1.15zm30.405 6.569a4.82 4.82 0 0 0 3.313 1.15 7.7 7.7 0 0 0 3.071-.621c.885-.383 1.674-.957 2.312-1.68h.346l1.093 2.301.667-.023 4.141-1.933v-.598l-1.921-1.667v-6.029a4.75 4.75 0 0 0-.4-2.249 4.74 4.74 0 0 0-1.406-1.8c-1.58-1.001-3.438-1.468-5.303-1.335-.858.001-1.715.059-2.566.173a18.21 18.21 0 0 0-2.438.518 8.43 8.43 0 0 0-1.899.782l1.726 4.003h.748l2.649-3.381a3.81 3.81 0 0 1 1.159-.173 3.18 3.18 0 0 1 1.368.209 3.2 3.2 0 0 1 1.151.769c.625.797.932 1.797.863 2.807v.186l-3.29.55c-4.456.782-6.684 2.496-6.684 5.142a3.63 3.63 0 0 0 .315 1.6 3.62 3.62 0 0 0 .985 1.299zm8.674-7.002l-1.829.434c-.984.186-1.917.578-2.738 1.15a2.13 2.13 0 0 0-.829 1.668c-.018.292.029.585.136.857a1.99 1.99 0 0 0 .486.719 2.44 2.44 0 0 0 1.679.552 5.06 5.06 0 0 0 3.095-.922v-4.458z" fill-rule="evenodd"/><path d="M57.304 8.798a.32.32 0 0 1 .074.106c.017.04.026.083.026.127s-.009.087-.026.127a.32.32 0 0 1-.074.106L54.74 11.83c-.03.032-.066.058-.106.076s-.084.027-.127.027a.32.32 0 0 1-.128-.027c-.041-.018-.076-.043-.106-.076l-1.284-1.28L51.7 9.256c-.032-.03-.058-.066-.076-.106s-.027-.084-.027-.128.009-.087.027-.127.043-.076.076-.106l2.564-2.564c.03-.032.066-.058.106-.076s.084-.027.127-.027.087.009.127.027.076.043.106.076l1.284 1.28 1.289 1.294zm94.312 19.416v-.483l2.014-1.912V17.65l-2.198-1.975v-.61l5.752-1.887h.863v12.628l2.048 1.878v.483l-8.479.046zm7.054-19.416a.33.33 0 0 1 .075.106c.017.04.026.083.026.127s-.009.087-.026.127a.33.33 0 0 1-.075.106l-2.564 2.564c-.029.032-.065.058-.106.076s-.083.027-.127.027-.087-.009-.128-.027a.32.32 0 0 1-.106-.076l-1.284-1.28-1.289-1.294c-.032-.03-.058-.066-.076-.106s-.026-.084-.026-.128.009-.087.026-.127.044-.076.076-.106l2.564-2.564c.03-.032.066-.058.106-.076a.32.32 0 0 1 .128-.027c.043 0 .087.009.127.027s.076.043.106.076l1.284 1.28 1.289 1.294z"/></g></svg>