<svg width="401" height="111" viewBox="0 0 401 111" fill="none" xmlns="http://www.w3.org/2000/svg">
<g clip-path="url(#clip0_2578_3725)">
<path d="M129.867 42.0029H131.265V34.562H129.867C127.843 34.562 128.873 36.7832 126.85 36.7832H123.465V27.0841H129.536C131.706 27.0841 130.602 31.0082 132.773 31.0082H134.208V23.9375C133.546 24.0115 132.589 24.0486 131.596 24.0486H116.07V25.5293C116.07 26.4178 116.328 26.788 117.027 27.1952C117.689 27.6024 117.873 27.9356 117.873 28.8241V48.8885C117.873 49.777 117.689 50.1101 117.027 50.5174C116.328 50.9246 116.07 51.2948 116.07 52.1832V53.664H125.599V52.1832C125.599 51.2948 125.305 50.9246 124.458 50.5174C123.649 50.1101 123.465 49.777 123.465 48.8885V39.7817H126.85C128.873 39.7817 127.843 42.0029 129.867 42.0029Z" fill="#0F0F0F"/>
<path d="M141.527 54.1826C146.42 54.1826 149.731 50.5917 149.731 45.2609C149.731 39.8931 146.383 36.3022 141.527 36.3022C136.67 36.3022 133.359 39.8931 133.359 45.2609C133.359 50.5917 136.634 54.1826 141.527 54.1826ZM138.915 45.2609C138.915 40.8556 139.798 38.7825 141.527 38.7825C143.293 38.7825 144.139 40.8556 144.139 45.2609C144.139 49.6662 143.293 51.6653 141.527 51.6653C139.798 51.6653 138.915 49.6662 138.915 45.2609Z" fill="#0F0F0F"/>
<path d="M151.349 53.6643H159.921V52.3686C159.921 51.6653 159.701 51.3321 159.038 50.9619C158.413 50.6287 158.192 50.2585 158.192 49.5552V47.2229C158.192 43.4099 159.038 40.8186 160.51 39.8191C160.547 41.2628 161.466 42.3734 163.012 42.3734C164.667 42.3734 165.55 41.2258 165.55 39.634C165.55 37.746 164.263 36.3022 162.239 36.3022C159.48 36.3022 157.272 39.0787 156.684 43.4099C156.537 43.4099 156.463 43.3729 156.463 43.1878C156.463 42.9287 156.5 42.1883 156.573 41.4479L156.868 36.3763L151.312 36.8205V38.1162C151.312 40.0042 152.821 39.0787 152.821 40.9297V49.5552C152.821 50.2585 152.637 50.6287 152.085 50.9619C151.533 51.3321 151.349 51.6653 151.349 52.3686V53.6643Z" fill="#0F0F0F"/>
<path d="M177.716 53.8123L183.345 53.6642L183.308 52.3685C183.271 51.6281 183.087 51.295 182.499 50.9618C181.983 50.6656 181.8 50.2954 181.8 49.5921V23.6045L174.957 24.0487V25.3444C174.957 27.2324 176.649 26.3069 176.649 28.1579V37.3757C175.692 36.7093 174.478 36.3021 173.08 36.3021C168.776 36.3021 165.906 39.967 165.906 45.4089C165.906 50.6656 168.629 54.1825 172.639 54.1825C174.736 54.1825 176.502 53.1459 177.458 51.5541L177.716 53.8123ZM171.572 45.2978C171.572 41.5589 172.676 39.2637 174.478 39.2637C175.692 39.2637 176.686 40.3002 176.686 41.4848V49.0738C176.686 50.2584 175.692 51.295 174.478 51.295C172.676 51.295 171.572 49.0738 171.572 45.2978Z" fill="#0F0F0F"/>
<path d="M129.867 75.3203H131.265V67.8794H129.867C127.843 67.8794 128.873 70.1006 126.85 70.1006H123.465V60.4015H129.536C131.706 60.4015 130.602 64.3256 132.773 64.3256H134.208V57.2549C133.546 57.3289 132.589 57.3659 131.596 57.3659H116.07V58.8467C116.07 59.7352 116.328 60.1054 117.027 60.5126C117.689 60.9198 117.873 61.253 117.873 62.1414V82.2059C117.873 83.0944 117.689 83.4276 117.027 83.8348C116.328 84.242 116.07 84.6122 116.07 85.5007V86.9814H125.599V85.5007C125.599 84.6122 125.305 84.242 124.458 83.8348C123.649 83.4276 123.465 83.0944 123.465 82.2059V73.0992H126.85C128.873 73.0992 127.843 75.3203 129.867 75.3203Z" fill="#0F0F0F"/>
<path d="M141.527 87.5C146.42 87.5 149.731 83.9091 149.731 78.5783C149.731 73.2105 146.383 69.6196 141.527 69.6196C136.67 69.6196 133.359 73.2105 133.359 78.5783C133.359 83.9091 136.634 87.5 141.527 87.5ZM138.915 78.5783C138.915 74.173 139.798 72.0999 141.527 72.0999C143.293 72.0999 144.139 74.173 144.139 78.5783C144.139 82.9836 143.293 84.9827 141.527 84.9827C139.798 84.9827 138.915 82.9836 138.915 78.5783Z" fill="#0F0F0F"/>
<path d="M157.634 87.4997C159.915 87.4997 161.754 86.3521 162.785 84.7232L162.711 87.1665L167.199 87.0184L169.002 86.9814L168.965 85.6487C168.965 84.9454 168.745 84.6122 168.193 84.279C167.641 83.9829 167.457 83.6127 167.457 82.9093V69.6934L160.687 70.1376V71.4333C160.687 73.3213 162.122 72.3958 162.122 74.2468V81.7247C162.122 83.2795 161.019 84.1309 159.805 84.1309C158.664 84.1309 157.855 83.4646 157.855 81.7987V69.6934L151.012 70.1376V71.4333C151.012 73.3213 152.52 72.3958 152.52 74.2468V82.28C152.52 86.2781 155.243 87.4997 157.634 87.4997Z" fill="#0F0F0F"/>
<path d="M170.873 86.9817H178.709V85.686C178.709 84.9827 178.599 84.6495 178.194 84.2793C177.826 83.9461 177.716 83.5759 177.716 82.8726V75.4317C177.716 73.9509 178.709 72.9514 180.107 72.9514C181.358 72.9514 182.057 73.8028 182.057 75.3206V82.8726C182.057 83.5759 181.947 83.9461 181.579 84.2793C181.174 84.6495 181.064 84.9827 181.064 85.686V86.9817H188.9V85.686C188.9 84.9827 188.716 84.6495 188.127 84.2793C187.612 83.9461 187.428 83.5759 187.428 82.8726V74.8764C187.428 71.4706 185.294 69.6196 182.278 69.6196C179.997 69.6196 178.047 70.6932 176.98 72.4331L177.053 69.6937L170.836 70.1379V71.4336C170.836 73.3216 172.344 72.3961 172.344 74.2471V82.8726C172.344 83.5759 172.16 83.9461 171.608 84.2793C171.057 84.6495 170.873 84.9827 170.873 85.686V86.9817Z" fill="#0F0F0F"/>
<path d="M202.091 87.1297L207.72 86.9816L207.683 85.6859C207.646 84.9456 207.462 84.6124 206.874 84.2792C206.359 83.9831 206.175 83.6129 206.175 82.9095V56.9219L199.332 57.3661V58.6618C199.332 60.5498 201.024 59.6243 201.024 61.4753V70.6931C200.067 70.0268 198.853 69.6195 197.455 69.6195C193.151 69.6195 190.281 73.2845 190.281 78.7263C190.281 83.9831 193.004 87.4999 197.014 87.4999C199.111 87.4999 200.877 86.4634 201.833 84.8715L202.091 87.1297ZM195.947 78.6152C195.947 74.8763 197.051 72.5811 198.853 72.5811C200.067 72.5811 201.061 73.6176 201.061 74.8023V82.3912C201.061 83.5758 200.067 84.6124 198.853 84.6124C197.051 84.6124 195.947 82.3912 195.947 78.6152Z" fill="#0F0F0F"/>
<path d="M219.312 87.1298L225.198 86.9817L225.161 85.686C225.125 84.9457 224.941 84.6495 224.389 84.2793C223.837 83.9832 223.653 83.613 223.653 82.9096V76.3572C223.653 72.0259 221.041 69.6196 216.258 69.6196C212.322 69.6196 209.489 71.2485 209.489 73.5437C209.489 74.8024 210.335 75.95 211.881 75.95C213.426 75.95 214.272 74.8024 214.272 73.3956C214.272 72.9884 214.198 72.6182 214.051 72.211C214.566 72.0629 215.081 71.9519 215.559 71.9519C217.399 71.9519 218.282 73.2105 218.282 76.098V76.6163C212.764 76.7274 209.379 79.1336 209.379 82.9096C209.379 85.7231 211.292 87.5 214.125 87.5C216.405 87.5 218.171 86.3524 219.128 84.4644L219.312 87.1298ZM214.787 82.2803C214.787 80.4663 216.148 79.2077 218.466 79.0596V81.2437C218.466 82.8726 217.436 84.1312 216.258 84.1312C215.375 84.1312 214.787 83.4279 214.787 82.2803Z" fill="#0F0F0F"/>
<path d="M232.86 87.4998C234.846 87.4998 236.612 86.7594 238.047 85.5008L236.907 83.2055C236.171 83.5017 235.472 83.6868 234.846 83.6868C233.927 83.6868 233.191 83.2426 233.191 81.5767V72.618H236.98V70.1377H233.191V63.3262L230.579 63.6963C229.107 63.9185 228.666 64.3257 228.666 65.5473V67.8795C228.666 70.2118 226.164 68.9531 226.164 71.2853V72.618H227.856V82.169C227.856 85.7229 229.917 87.4998 232.86 87.4998Z" fill="#0F0F0F"/>
<path d="M239.451 86.9818H247.729V85.6861C247.729 84.9828 247.545 84.6496 246.993 84.2794C246.478 83.9462 246.294 83.576 246.294 82.8727V69.6938L239.414 70.138V71.4337C239.414 73.3217 240.923 72.3962 240.923 74.2472V82.8727C240.923 83.576 240.739 83.9462 240.187 84.2794C239.635 84.6496 239.451 84.9828 239.451 85.6861V86.9818ZM240.408 62.9563C240.408 64.5851 241.548 65.6957 243.167 65.6957C244.749 65.6957 245.889 64.5851 245.889 62.9563C245.889 61.3644 244.749 60.2168 243.167 60.2168C241.548 60.2168 240.408 61.3644 240.408 62.9563Z" fill="#0F0F0F"/>
<path d="M257.433 87.5C262.326 87.5 265.637 83.9091 265.637 78.5783C265.637 73.2105 262.289 69.6196 257.433 69.6196C252.577 69.6196 249.266 73.2105 249.266 78.5783C249.266 83.9091 252.54 87.5 257.433 87.5ZM254.821 78.5783C254.821 74.173 255.704 72.0999 257.433 72.0999C259.199 72.0999 260.045 74.173 260.045 78.5783C260.045 82.9836 259.199 84.9827 257.433 84.9827C255.704 84.9827 254.821 82.9836 254.821 78.5783Z" fill="#0F0F0F"/>
<path d="M267.256 86.9817H275.092V85.686C275.092 84.9827 274.982 84.6495 274.577 84.2793C274.209 83.9461 274.099 83.5759 274.099 82.8726V75.4317C274.099 73.9509 275.092 72.9514 276.49 72.9514C277.741 72.9514 278.44 73.8028 278.44 75.3206V82.8726C278.44 83.5759 278.33 83.9461 277.962 84.2793C277.557 84.6495 277.447 84.9827 277.447 85.686V86.9817H285.283V85.686C285.283 84.9827 285.099 84.6495 284.511 84.2793C283.995 83.9461 283.812 83.5759 283.812 82.8726V74.8764C283.812 71.4706 281.678 69.6196 278.661 69.6196C276.38 69.6196 274.43 70.6932 273.363 72.4331L273.437 69.6937L267.219 70.1379V71.4336C267.219 73.3216 268.728 72.3961 268.728 74.2471V82.8726C268.728 83.5759 268.544 83.9461 267.992 84.2793C267.44 84.6495 267.256 84.9827 267.256 85.686V86.9817Z" fill="#0F0F0F"/>
</g>
<defs>
<clipPath id="clip0_2578_3725">
<rect width="170" height="64" fill="white" transform="translate(115.281 23.5)"/>
</clipPath>
</defs>
</svg>
