<svg width="251" height="105" viewBox="0 0 251 105" fill="none" xmlns="http://www.w3.org/2000/svg">
<g opacity="0.7" clip-path="url(#clip0_2388_4578)">
<path d="M35.2662 61.4476C36.3471 59.1759 36.8814 56.6827 36.8262 54.1676C36.9493 51.7196 36.3624 49.2881 35.1362 47.1658C34.0488 45.4654 32.5855 44.0373 30.8592 42.9915C29.1225 41.9487 27.2555 41.1401 25.3069 40.5865C23.3257 40.0206 21.4745 39.4572 19.7533 38.8965C18.233 38.428 16.7907 37.7362 15.4737 36.8438C14.922 36.4567 14.4776 35.9359 14.182 35.3302C13.8864 34.7245 13.7494 34.0537 13.7837 33.3806C13.7578 32.5241 14.0055 31.6817 14.4909 30.9756C14.9702 30.3074 15.6004 29.7618 16.3304 29.3831C17.0882 28.9809 17.8973 28.6839 18.7354 28.5004C19.5459 28.316 20.3742 28.221 21.2054 28.217C22.691 28.2389 24.1621 28.5142 25.5552 29.0308C26.9833 29.5029 28.2464 30.374 29.1952 31.5411L36.7625 23.2653C34.7038 21.4169 32.2656 20.0414 29.619 19.2353C26.9586 18.4313 24.1938 18.0261 21.4147 18.0328C18.9969 18.0285 16.5913 18.374 14.2725 19.0585C12.0548 19.6874 9.97482 20.7267 8.14039 22.1226C6.37203 23.4907 4.92388 25.2286 3.89719 27.2147C2.79843 29.4076 2.25218 31.8358 2.30599 34.288C2.19221 36.6525 2.79581 38.9962 4.03759 41.0116C5.16757 42.6835 6.654 44.0843 8.38999 45.1131C10.167 46.1653 12.0667 46.9949 14.0463 47.5831C16.0726 48.1967 17.9584 48.8099 19.7039 49.4226C21.2597 49.9384 22.7271 50.6899 24.055 51.6508C24.6134 52.0593 25.0632 52.5983 25.3651 53.2209C25.667 53.8434 25.8117 54.5305 25.7866 55.2219C25.8084 56.0521 25.5747 56.8689 25.1171 57.5619C24.6593 58.2298 24.0551 58.7842 23.3504 59.183C22.5793 59.6232 21.7468 59.9457 20.8804 60.1398C18.1681 60.7742 15.3198 60.449 12.8204 59.2194C11.125 58.4217 9.65179 57.2195 8.53039 55.7185L0.679688 64.3466C2.91914 66.4617 5.56603 68.0983 8.45889 69.1566C11.3692 70.1687 14.4322 70.6718 17.5134 70.6438C20.0107 70.6554 22.4977 70.322 24.9039 69.6532C27.1319 69.0456 29.2213 68.0126 31.0568 66.6112C32.8342 65.2323 34.2738 63.4664 35.2662 61.4476Z" fill="#EBC7BA"/>
<path d="M40.4277 29.0543H54.716V69.3686H65.7478V29.0543H80.0348V19.2939H40.4277V29.0543Z" fill="#EBC7BA"/>
<path d="M163.177 25.1323C160.28 23.0131 156.988 21.4964 153.495 20.672C149.661 19.7377 145.728 19.2749 141.782 19.294H116.811V49.6347C116.826 51.1059 116.574 52.5676 116.069 53.9494C115.605 55.2193 114.896 56.3855 113.981 57.3814C113.088 58.3461 112.005 59.1162 110.8 59.6434C109.529 60.1953 108.156 60.4726 106.77 60.4572C105.373 60.4709 103.987 60.1937 102.702 59.6434C101.484 59.1227 100.387 58.3521 99.485 57.3814C98.5715 56.3848 97.8622 55.2188 97.3972 53.9494C96.892 52.5676 96.6406 51.1059 96.6549 49.6347V19.294H85.6205V50.0598C85.591 52.8517 86.0458 55.6276 86.9647 58.2641C87.8175 60.6932 89.1796 62.912 90.9596 64.7719C92.8258 66.6767 95.0854 68.151 97.5805 69.0918C99.9601 69.9803 102.467 70.4823 105.005 70.579L104.915 70.6479H143.311C147.026 70.6639 150.72 70.1007 154.262 68.9787C157.612 67.9384 160.737 66.2776 163.474 64.0829C166.144 61.9172 168.31 59.195 169.82 56.1061C171.448 52.6759 172.255 48.9135 172.177 45.1172C172.295 40.9968 171.464 36.9045 169.746 33.1572C168.232 29.9939 165.979 27.2415 163.177 25.1323ZM159.005 51.8928C158.136 53.8101 156.803 55.4807 155.126 56.7535C153.385 58.0319 151.396 58.9334 149.287 59.4003C146.897 59.9478 144.451 60.2152 141.999 60.1972H136.124V29.7382H142.797C145.089 29.729 147.371 30.0352 149.579 30.6482C151.607 31.1947 153.513 32.1178 155.199 33.3691C156.805 34.591 158.108 36.1672 159.005 37.975C159.989 40.02 160.474 42.2689 160.42 44.5374C160.494 47.0633 160.011 49.5744 159.005 51.8928Z" fill="#EBC7BA"/>
<path d="M188.89 19.2939H177.855V69.3686H188.89V19.2939Z" fill="#EBC7BA"/>
<path d="M248.263 55.2221C249.647 51.7604 250.332 48.0587 250.279 44.3307C250.332 40.6028 249.647 36.9011 248.263 33.4393C246.998 30.302 245.081 27.4688 242.64 25.1271C240.177 22.8054 237.265 21.0127 234.082 19.8595C227.077 17.4068 219.445 17.4068 212.44 19.8595C209.257 21.0124 206.345 22.8052 203.882 25.1271C201.441 27.469 199.524 30.3021 198.258 33.4393C196.875 36.9014 196.19 40.6029 196.243 44.3307C196.19 48.0586 196.875 51.7601 198.258 55.2221C199.524 58.3589 201.441 61.1915 203.882 63.533C206.344 65.8567 209.257 67.6504 212.44 68.8032C219.445 71.2559 227.077 71.2559 234.082 68.8032C237.265 67.6501 240.178 65.8564 242.64 63.533C245.081 61.1918 246.998 58.3591 248.263 55.2221ZM237.733 50.8021C237.04 52.6963 235.968 54.4291 234.583 55.8942C233.198 57.3461 231.524 58.491 229.669 59.2547C225.552 60.8581 220.983 60.8581 216.866 59.2547C215.011 58.491 213.337 57.3461 211.952 55.8942C210.567 54.4291 209.495 52.6963 208.802 50.8021C207.343 46.6233 207.343 42.0732 208.802 37.8944C209.489 35.9869 210.562 34.2412 211.952 32.7659C213.338 31.3165 215.012 30.1727 216.866 29.408C220.983 27.8047 225.552 27.8047 229.669 29.408C231.523 30.1727 233.197 31.3165 234.583 32.7659C235.973 34.2412 237.046 35.9869 237.733 37.8944C239.19 42.0735 239.19 46.6231 237.733 50.8021Z" fill="#EBC7BA"/>
<path d="M0.78125 79.7585H3.67505V87.9239H5.90845V79.7585H8.80355V77.7812H0.78125V79.7585Z" fill="#EBC7BA"/>
<path d="M33.2996 77.7812L28.916 87.9213H31.3782L32.2245 85.7724H36.1635L37.0371 87.9213H39.5591L35.1469 77.7812H33.2996ZM32.9265 83.8913L34.1576 80.7388L35.4043 83.8913H32.9265Z" fill="#EBC7BA"/>
<path d="M69.2994 84.8298H69.2695L64.9587 77.7812H61.9219V87.9239H64.1566V80.7037H64.1852L68.6117 87.9239H71.5341V77.7812H69.2994V84.8298Z" fill="#EBC7BA"/>
<path d="M98.2781 77.7812L93.8945 87.9213H96.358L97.203 85.7724H101.142L102.016 87.9213H104.538L100.125 77.7812H98.2781ZM97.905 83.8913L99.1361 80.7388L100.383 83.8913H97.905Z" fill="#EBC7BA"/>
<path d="M133.474 81.5642H129.133V77.7812H126.898V87.9239H129.133V83.5402H133.474V87.9239H135.709V77.7812H133.474V81.5642Z" fill="#EBC7BA"/>
<path d="M188.04 77.7812L183.656 87.9213H186.126L186.971 85.7724H190.91L191.784 87.9213H194.306L189.894 77.7812H188.04ZM187.667 83.8913L188.898 80.7388L190.145 83.8913H187.667Z" fill="#EBC7BA"/>
<path d="M218.867 77.7812H216.631V87.9239H218.867V77.7812Z" fill="#EBC7BA"/>
<path d="M247.802 83.6401C248.45 83.5476 249.036 83.2057 249.436 82.6872C249.816 82.158 250.013 81.5187 249.995 80.8672C250.012 80.3553 249.906 79.8468 249.687 79.3839C249.494 79.0033 249.208 78.6781 248.855 78.4388C248.485 78.1956 248.072 78.0253 247.638 77.937C247.155 77.8346 246.662 77.7841 246.169 77.7862H242.244V87.9262H244.48V83.8702H245.584L247.704 87.9236H250.382L247.802 83.6401ZM247.494 81.4912C247.377 81.6428 247.221 81.7593 247.042 81.8279C246.848 81.9035 246.642 81.9474 246.434 81.9579C246.209 81.9735 245.997 81.98 245.796 81.98H244.48V79.6725H245.941C246.147 79.6729 246.352 79.6872 246.556 79.7154C246.751 79.7388 246.94 79.7946 247.117 79.8805C247.278 79.961 247.415 80.0814 247.517 80.2302C247.631 80.4149 247.685 80.6298 247.674 80.8464C247.688 81.0755 247.625 81.3027 247.494 81.4912Z" fill="#EBC7BA"/>
</g>
<defs>
<clipPath id="clip0_2388_4578">
<rect width="249.6" height="104" fill="white" transform="translate(0.730469 0.97168)"/>
</clipPath>
</defs>
</svg>
