<svg xmlns="http://www.w3.org/2000/svg" width="179" height="41" fill="none"><path d="M27.793 19.42c.081.077.146.171.19.274a.83.83 0 0 1 .067.327c0 .112-.023.223-.067.326s-.109.196-.19.274l-6.59 6.59a.82.82 0 0 1-.273.194c-.103.045-.215.069-.328.069s-.224-.023-.328-.069-.196-.112-.273-.194l-3.301-3.289-3.313-3.325a.82.82 0 0 1-.194-.273c-.045-.103-.069-.215-.069-.328a.82.82 0 0 1 .263-.6l6.59-6.59c.076-.083.169-.149.273-.194s.215-.069.328-.069.224.023.328.069a.82.82 0 0 1 .273.194l3.301 3.289 3.313 3.325z" fill="#ad2e2e"/><path d="M34.55 25.266a.84.84 0 0 1-.588.24h-5.834a.83.83 0 0 1-.6-1.417l3.373-3.505a.82.82 0 0 0 .19-.274c.044-.104.067-.214.067-.326a.83.83 0 0 0-.067-.327.84.84 0 0 0-.19-.274l-3.373-3.505a.83.83 0 0 1 .6-1.417h5.834a.84.84 0 0 1 .588.24l4.681 4.67a.83.83 0 0 1 .19.926.83.83 0 0 1-.19.274l-4.681 4.694zm-27.978 0a.86.86 0 0 0 .6.24h5.833a.84.84 0 0 0 .6-1.416l-3.373-3.505a.82.82 0 0 1-.19-.274.83.83 0 0 1 .19-.927l3.373-3.505a.84.84 0 0 0-.6-1.416H7.172a.86.86 0 0 0-.6.24l-4.669 4.67a.8.8 0 0 0-.194.273c-.045.104-.069.215-.069.328a.81.81 0 0 0 .069.328.81.81 0 0 0 .194.272l4.669 4.694z" fill="#d95759"/><path d="M12.957 4.966a.85.85 0 0 0-.252-.588L8.588.248a.84.84 0 0 0-.903-.18.84.84 0 0 0-.526.756l-.096 4.862a.83.83 0 0 1-.816.816l-4.861.144a.83.83 0 0 0-.577 1.428l4.177 4.069a.78.78 0 0 0 .588.252h6.614a.84.84 0 0 0 .84-.84l-.072-6.59zm0 30.083a.85.85 0 0 1-.252.588l-4.117 4.13a.84.84 0 0 1-1.429-.577l-.096-4.802a.83.83 0 0 0-.816-.816l-4.861-.156a.83.83 0 0 1-.577-1.428l4.177-4.117a.78.78 0 0 1 .588-.252h6.614a.84.84 0 0 1 .84.84l-.072 6.591zm15.22-30.083a.84.84 0 0 1 .24-.588l4.177-4.13a.84.84 0 0 1 .903-.18.84.84 0 0 1 .526.756l.084 4.862a.84.84 0 0 0 .828.816l4.801.096a.84.84 0 0 1 .576 1.429l-4.117 4.118c-.076.08-.167.144-.268.187a.8.8 0 0 1-.32.065h-6.614a.84.84 0 0 1-.84-.84l.024-6.59zm0 30.083a.84.84 0 0 0 .24.588l4.177 4.13a.84.84 0 0 0 1.429-.577l.084-4.802a.84.84 0 0 1 .828-.816l4.801-.096a.84.84 0 0 0 .576-1.429l-4.117-4.178c-.076-.08-.167-.144-.268-.187a.8.8 0 0 0-.32-.065h-6.614a.84.84 0 0 0-.84.84l.024 6.59z" fill="#e28389"/><path d="M15.31 33.993c-.077-.077-.138-.169-.18-.27a.79.79 0 0 1-.06-.318V27.57a.84.84 0 0 1 1.416-.6l3.493 3.373a.84.84 0 0 0 1.2 0l3.505-3.373a.84.84 0 0 1 1.416.6v5.834a.83.83 0 0 1-.252.588l-4.657 4.682a.83.83 0 0 1-.6.257.84.84 0 0 1-.327-.067.83.83 0 0 1-.274-.19l-4.681-4.682zm0-27.971c-.077.077-.138.169-.18.27a.79.79 0 0 0-.06.318v5.834a.84.84 0 0 0 1.416.6l3.493-3.373a.84.84 0 0 1 1.2 0l3.505 3.373a.84.84 0 0 0 1.416-.6V6.647a.83.83 0 0 0-.252-.588l-4.657-4.682a.83.83 0 0 0-.927-.191.84.84 0 0 0-.274.19l-4.68 4.646z" fill="#d95759"/><g fill="#14240d"><path d="M142.406 29.683v.483l8.478-.046v-.483l-2.048-1.87V7.204h-.863l-5.751 2.013v.61l2.197 1.947V27.78l-2.013 1.903zm-91.501.483v-.483l2.013-1.912v-8.169l-2.197-1.975v-.61l5.752-1.887h.863v12.628l2.048 1.878v.483l-8.478.046zm9.847 0v-.483l2.013-1.903v-8.12l-2.197-2.033v-.61l5.671-1.887h.897l-.219 2.611h.123a8.28 8.28 0 0 1 2.632-2.009 8.3 8.3 0 0 1 3.238-.821c.682-.044 1.365.056 2.005.294a4.86 4.86 0 0 1 1.711 1.087 5.52 5.52 0 0 1 1.3 3.911v7.586l2.013 1.847v.483l-8.248.046v-.483l1.898-1.917v-6.527c.077-.911-.172-1.82-.702-2.565a2.89 2.89 0 0 0-1.064-.645c-.397-.135-.819-.182-1.237-.137a5.21 5.21 0 0 0-2.105.414 5.71 5.71 0 0 0-1.311.78v8.67l1.841 1.905v.483l-8.26.023zm24.388-.242a5.75 5.75 0 0 0 2.761.656 6.18 6.18 0 0 0 3.532-.989 5.05 5.05 0 0 0 2.048-2.68l-.932-.564a3.76 3.76 0 0 1-2.945 1.38 2.3 2.3 0 0 1-1.933-.863 4.33 4.33 0 0 1-.633-2.6v-6.54l5.016.857.437-.322v-3.451h-.564l-4.889.907v-4.646h-.909l-6.189 6.557v.656h2.692v7.04a5.57 5.57 0 0 0 .656 2.761 4.6 4.6 0 0 0 1.852 1.841z"/><path fill-rule="evenodd" d="M102.027 30.58a8.72 8.72 0 0 1-4.06-.909 7.04 7.04 0 0 1-2.772-2.577 7.13 7.13 0 0 1-.989-3.716c-.034-1.526.335-3.034 1.07-4.371.693-1.24 1.717-2.263 2.956-2.957 1.339-.732 2.846-1.101 4.372-1.07a6.02 6.02 0 0 1 3.432.912c1.026.642 1.834 1.579 2.32 2.689a9.32 9.32 0 0 1 .828 4.072H98.751c.003 1.337.454 2.638 1.286 3.693a4.51 4.51 0 0 0 1.612 1.136 4.5 4.5 0 0 0 1.943.337c1.566.061 3.093-.502 4.245-1.564l.897.725a6.42 6.42 0 0 1-2.692 2.646c-1.24.642-2.618.97-4.015.955zM99.14 19.456c-.174.603-.289 1.22-.344 1.844l5.762-.797c.065-.951-.186-1.897-.713-2.692a2.3 2.3 0 0 0-1.898-.92 2.42 2.42 0 0 0-1.657.667c-.545.519-.942 1.174-1.15 1.898z"/><path d="M113.037 27.769l-2.025 1.914v.483h9.433v-.483l-2.991-2.064V19.7c.421-.404.916-.726 1.461-.946l.585-.2 2.314 2.282h.794l2.07-5.476c-.703-.308-1.464-.461-2.231-.449-1.005.009-1.985.313-2.819.874-.933.602-1.701 1.429-2.231 2.404h-.185l.185-3.06h-.898l-5.671 1.887v.61l2.209 2.058v8.085z"/><path d="M129.579 30.58a4.82 4.82 0 0 1-3.313-1.15 3.63 3.63 0 0 1-.985-1.299 3.62 3.62 0 0 1-.315-1.6c0-2.646 2.232-4.36 6.695-5.142l3.279-.549v-.187c.069-1.01-.238-2.01-.863-2.807a3.19 3.19 0 0 0-2.519-.978 3.8 3.8 0 0 0-1.158.174l-2.65 3.381h-.736l-1.749-4.038a8.44 8.44 0 0 1 1.898-.782 18.27 18.27 0 0 1 2.439-.518 19.47 19.47 0 0 1 2.565-.173 8.75 8.75 0 0 1 5.35 1.369 4.75 4.75 0 0 1 1.41 1.799c.317.706.457 1.478.407 2.25v6.029l1.921 1.667v.598l-4.153 1.933-.701.023-1.093-2.301h-.276a6.56 6.56 0 0 1-2.381 1.76 7.7 7.7 0 0 1-3.072.541zm3.532-7.719l1.829-.434v4.545a5.11 5.11 0 0 1-3.095.916 2.44 2.44 0 0 1-1.679-.552 1.99 1.99 0 0 1-.486-.719c-.107-.272-.154-.565-.136-.857a2.13 2.13 0 0 1 .203-.974 2.12 2.12 0 0 1 .626-.774c.821-.573 1.754-.965 2.738-1.15zm30.404 6.568a4.82 4.82 0 0 0 3.313 1.15 7.7 7.7 0 0 0 3.072-.621 6.55 6.55 0 0 0 2.311-1.68h.346l1.093 2.301.667-.023 4.141-1.933v-.598l-1.921-1.667V20.33c.052-.771-.085-1.543-.4-2.249a4.73 4.73 0 0 0-1.406-1.8 8.74 8.74 0 0 0-5.303-1.335 19.47 19.47 0 0 0-2.565.173 18.19 18.19 0 0 0-2.439.518 8.42 8.42 0 0 0-1.898.782l1.725 4.003h.748l2.65-3.381a3.8 3.8 0 0 1 1.158-.174c.466-.032.933.04 1.368.209a3.18 3.18 0 0 1 1.151.769c.625.797.932 1.797.863 2.807v.186l-3.29.55c-4.456.782-6.684 2.496-6.684 5.142a3.63 3.63 0 0 0 1.3 2.899zm8.674-7.002l-1.829.434a7.08 7.08 0 0 0-2.738 1.15 2.13 2.13 0 0 0-.608.738 2.1 2.1 0 0 0-.22.93c-.018.292.028.585.135.857a1.99 1.99 0 0 0 .486.719 2.44 2.44 0 0 0 1.679.552 5.06 5.06 0 0 0 3.095-.922v-4.458z" fill-rule="evenodd"/><path d="M57.959 10.75a.32.32 0 0 1 .074.107c.017.04.026.083.026.127s-.009.087-.026.127a.32.32 0 0 1-.074.106l-2.564 2.564c-.03.032-.066.058-.106.076s-.084.027-.127.027-.087-.009-.127-.027-.076-.043-.106-.076l-1.284-1.28-1.289-1.294c-.032-.03-.058-.066-.076-.106s-.027-.084-.027-.127a.32.32 0 0 1 .027-.128c.018-.041.043-.076.076-.106l2.564-2.564c.03-.032.066-.058.106-.076s.084-.027.127-.027.087.009.127.027.076.043.106.076l1.284 1.28 1.289 1.294zm94.312 19.416v-.483l2.013-1.912v-8.169l-2.197-1.975v-.61l5.752-1.887h.862v12.628l2.048 1.878v.483l-8.478.046zm7.054-19.416a.32.32 0 0 1 .074.107c.017.041.026.083.026.127s-.009.087-.026.127-.043.076-.074.106l-2.564 2.564a.32.32 0 0 1-.234.102c-.044 0-.087-.009-.127-.027s-.077-.043-.106-.076l-1.285-1.28-1.289-1.294c-.032-.03-.058-.066-.075-.106a.33.33 0 0 1-.027-.127.32.32 0 0 1 .027-.128.31.31 0 0 1 .075-.106l2.564-2.564c.03-.032.066-.058.106-.076s.084-.027.128-.027.087.009.127.027.077.043.106.076l1.285 1.28 1.289 1.294z"/></g></svg>