<svg width="100" height="100" viewBox="0 0 100 100" fill="none" xmlns="http://www.w3.org/2000/svg">
<path d="M68.1003 48.5293C68.3036 48.7228 68.4656 48.9555 68.5762 49.2135C68.6869 49.4714 68.7439 49.7492 68.7439 50.0299C68.7439 50.3106 68.6869 50.5884 68.5762 50.8463C68.4656 51.1043 68.3036 51.337 68.1003 51.5305L51.6261 68.0067C51.435 68.214 51.203 68.3795 50.9448 68.4927C50.6866 68.6059 50.4077 68.6643 50.1257 68.6643C49.8438 68.6643 49.5649 68.6059 49.3067 68.4927C49.0484 68.3795 48.8164 68.214 48.6253 68.0067L40.3732 59.7836L32.0912 51.4704C31.8838 51.2793 31.7184 51.0473 31.6052 50.7891C31.492 50.5308 31.4336 50.2519 31.4336 49.9699C31.4336 49.6879 31.492 49.409 31.6052 49.1507C31.7184 48.8924 31.8838 48.6604 32.0912 48.4693L48.5653 31.9931C48.7564 31.7858 48.9884 31.6203 49.2466 31.5071C49.5049 31.3939 49.7838 31.3354 50.0657 31.3354C50.3477 31.3354 50.6265 31.3939 50.8848 31.5071C51.143 31.6203 51.375 31.7858 51.5661 31.9931L59.8182 40.2162L68.1003 48.5293Z" fill="#2C1B1B"/>
<path d="M84.9958 63.1449C84.6031 63.5297 84.0752 63.7452 83.5254 63.7452H68.9417C68.5278 63.7538 68.1209 63.6381 67.7734 63.4131C67.4258 63.188 67.1537 62.864 66.9922 62.4827C66.8307 62.1015 66.7872 61.6806 66.8672 61.2744C66.9473 60.8681 67.1473 60.4952 67.4413 60.2038L75.8735 51.4405C76.0768 51.2471 76.2388 51.0143 76.3494 50.7564C76.4601 50.4984 76.5172 50.2206 76.5172 49.9399C76.5172 49.6593 76.4601 49.3815 76.3494 49.1235C76.2388 48.8656 76.0768 48.6328 75.8735 48.4394L67.4413 39.6761C67.1473 39.3846 66.9473 39.0118 66.8672 38.6055C66.7872 38.1993 66.8307 37.7784 66.9922 37.3972C67.1537 37.0159 67.4258 36.6919 67.7734 36.4668C68.1209 36.2418 68.5278 36.1261 68.9417 36.1347H83.5254C84.0752 36.1346 84.6031 36.3501 84.9958 36.735L96.6988 48.4094C96.9021 48.6028 97.064 48.8356 97.1747 49.0935C97.2853 49.3515 97.3424 49.6292 97.3424 49.9099C97.3424 50.1906 97.2853 50.4684 97.1747 50.7264C97.064 50.9843 96.9021 51.2171 96.6988 51.4105L84.9958 63.1449Z" fill="#D95767"/>
<path d="M15.0474 63.1445C15.451 63.5311 15.9888 63.7463 16.5477 63.7447H31.1314C31.5391 63.7392 31.9364 63.6152 32.2748 63.3877C32.6132 63.1602 32.8781 62.8392 33.0371 62.4637C33.1962 62.0883 33.2426 61.6746 33.1706 61.2733C33.0986 60.8719 32.9114 60.5001 32.6318 60.2034L24.1996 51.4401C23.9963 51.2466 23.8344 51.0139 23.7237 50.7559C23.6131 50.498 23.556 50.2202 23.556 49.9395C23.556 49.6588 23.6131 49.3811 23.7237 49.1231C23.8344 48.8651 23.9963 48.6324 24.1996 48.4389L32.6318 39.6756C32.9114 39.3789 33.0986 39.0071 33.1706 38.6057C33.2426 38.2044 33.1962 37.7907 33.0371 37.4153C32.8781 37.0398 32.6132 36.7188 32.2748 36.4913C31.9364 36.2638 31.5391 36.1398 31.1314 36.1343H16.5477C15.9888 36.1327 15.451 36.3479 15.0474 36.7345L3.37436 48.4089C3.16704 48.6 3.00159 48.8321 2.88841 49.0903C2.77523 49.3486 2.7168 49.6275 2.7168 49.9095C2.7168 50.1915 2.77523 50.4704 2.88841 50.7287C3.00159 50.9869 3.16704 51.2189 3.37436 51.4101L15.0474 63.1445Z" fill="#D95767"/>
<path d="M31.0114 12.3958C31.0003 11.8424 30.7743 11.315 30.3812 10.9252L20.0886 0.601332C19.7969 0.315018 19.428 0.120058 19.0271 0.040337C18.6262 -0.0393839 18.2107 -0.000399163 17.8316 0.15252C17.4526 0.305439 17.1264 0.565649 16.893 0.901246C16.6596 1.23684 16.5292 1.63326 16.5177 2.04189L16.2777 14.1965C16.2699 14.7353 16.0524 15.2499 15.6714 15.6309C15.2904 16.012 14.7759 16.2295 14.2372 16.2372L2.08407 16.5974C1.66897 16.5947 1.26267 16.7168 0.917847 16.9479C0.573021 17.179 0.305582 17.5085 0.150303 17.8935C-0.0049763 18.2785 -0.0409293 18.7013 0.0470511 19.107C0.135031 19.5127 0.342908 19.8826 0.643714 20.1687L11.0863 30.3426C11.273 30.5456 11.5005 30.7068 11.7539 30.8154C12.0074 30.924 12.281 30.9777 12.5567 30.9728H29.0909C29.648 30.9728 30.1823 30.7515 30.5762 30.3575C30.9701 29.9635 31.1914 29.4292 31.1914 28.872L31.0114 12.3958Z" fill="#D95767"/>
<path d="M31.0114 87.6042C31.0003 88.1576 30.7743 88.685 30.3812 89.0747L20.0886 99.3986C19.7969 99.6849 19.428 99.8799 19.0271 99.9596C18.6262 100.039 18.2107 100 17.8316 99.8474C17.4526 99.6945 17.1264 99.4343 16.893 99.0987C16.6596 98.7631 16.5292 98.3667 16.5177 97.9581L16.2777 85.9536C16.2699 85.4147 16.0524 84.9001 15.6714 84.5191C15.2904 84.138 14.7759 83.9205 14.2372 83.9128L2.08407 83.5226C1.66897 83.5253 1.26267 83.4032 0.917847 83.1721C0.573021 82.941 0.305582 82.6115 0.150303 82.2265C-0.0049763 81.8415 -0.0409293 81.4187 0.0470511 81.013C0.135031 80.6073 0.342908 80.2374 0.643714 79.9513L11.0863 69.6574C11.273 69.4544 11.5005 69.2932 11.7539 69.1846C12.0074 69.0759 12.281 69.0223 12.5567 69.0272H29.0909C29.648 69.0272 30.1823 69.2485 30.5762 69.6425C30.9701 70.0364 31.1914 70.5708 31.1914 71.1279L31.0114 87.6042Z" fill="#D95767"/>
<path d="M69.06 12.3958C69.0599 11.8459 69.2754 11.318 69.6602 10.9252L80.1028 0.601332C80.3945 0.315018 80.7635 0.120058 81.1644 0.040337C81.5652 -0.0393839 81.9807 -0.000399163 82.3598 0.15252C82.7388 0.305439 83.065 0.565649 83.2984 0.901246C83.5318 1.23684 83.6623 1.63326 83.6737 2.04189L83.8837 14.1965C83.8992 14.738 84.1232 15.2527 84.509 15.6329C84.8948 16.0132 85.4126 16.2297 85.9543 16.2372L97.9574 16.4773C98.3659 16.4888 98.7623 16.6192 99.0979 16.8527C99.4334 17.0861 99.6936 17.4123 99.8465 17.7915C99.9994 18.1706 100.038 18.586 99.9587 18.987C99.879 19.3879 99.684 19.7569 99.3977 20.0487L89.1051 30.3426C88.9162 30.5427 88.6882 30.7018 88.4353 30.8102C88.1823 30.9187 87.9099 30.974 87.6347 30.9728H71.1005C70.5434 30.9728 70.0091 30.7515 69.6152 30.3575C69.2213 29.9635 69 29.4292 69 28.872L69.06 12.3958Z" fill="#D95767"/>
<path d="M69.06 87.6044C69.0599 88.1542 69.2754 88.6822 69.6602 89.0749L80.1028 99.3988C80.3945 99.6851 80.7635 99.8801 81.1644 99.9598C81.5652 100.04 81.9807 100.001 82.3598 99.8476C82.7388 99.6947 83.065 99.4345 83.2984 99.0989C83.5318 98.7633 83.6623 98.3669 83.6737 97.9583L83.8837 85.9538C83.8992 85.4122 84.1232 84.8976 84.509 84.5173C84.8948 84.137 85.4126 83.9205 85.9543 83.913L97.9574 83.6729C98.3659 83.6614 98.7623 83.531 99.0979 83.2976C99.4334 83.0642 99.6936 82.7379 99.8465 82.3588C99.9994 81.9797 100.038 81.5642 99.9587 81.1632C99.879 80.7623 99.684 80.3933 99.3977 80.1015L89.1051 69.6576C88.9162 69.4575 88.6882 69.2983 88.4353 69.1899C88.1823 69.0815 87.9099 69.0262 87.6347 69.0274H71.1005C70.5434 69.0274 70.0091 69.2487 69.6152 69.6427C69.2213 70.0366 69 70.571 69 71.1281L69.06 87.6044Z" fill="#D95767"/>
<path d="M36.8933 84.963C36.7001 84.7704 36.5474 84.5411 36.4443 84.2885C36.3412 84.0359 36.2898 83.7652 36.2931 83.4924V68.9069C36.2986 68.4992 36.4227 68.1018 36.6501 67.7634C36.8776 67.425 37.1985 67.16 37.5739 67.001C37.9494 66.8419 38.363 66.7955 38.7643 66.8675C39.1656 66.9394 39.5373 67.1267 39.834 67.4063L48.5663 75.8395C48.7618 76.0392 48.9953 76.1978 49.2529 76.306C49.5105 76.4143 49.7872 76.4701 50.0666 76.4701C50.3461 76.4701 50.6227 76.4143 50.8803 76.306C51.138 76.1978 51.3714 76.0392 51.567 75.8395L60.3292 67.4063C60.626 67.1267 60.9977 66.9394 61.399 66.8675C61.8003 66.7955 62.2139 66.8419 62.5893 67.001C62.9647 67.16 63.2857 67.425 63.5131 67.7634C63.7406 68.1018 63.8646 68.4992 63.8701 68.9069V83.4924C63.8678 83.7671 63.811 84.0386 63.7028 84.291C63.5946 84.5435 63.4373 84.7719 63.24 84.963L51.597 96.6674C51.4036 96.8708 51.1709 97.0328 50.9129 97.1434C50.655 97.2541 50.3773 97.3111 50.0966 97.3111C49.816 97.3111 49.5383 97.2541 49.2803 97.1434C49.0224 97.0328 48.7897 96.8708 48.5963 96.6674L36.8933 84.963Z" fill="#D95767"/>
<path d="M36.8933 15.0365C36.7001 15.229 36.5474 15.4584 36.4443 15.7109C36.3412 15.9635 36.2898 16.2342 36.2931 16.507V31.0925C36.2986 31.5003 36.4227 31.8976 36.6501 32.236C36.8776 32.5745 37.1985 32.8394 37.5739 32.9985C37.9494 33.1576 38.363 33.2039 38.7643 33.132C39.1656 33.06 39.5373 32.8727 39.834 32.5931L48.5663 24.1599C48.7618 23.9603 48.9953 23.8017 49.2529 23.6934C49.5105 23.5851 49.7872 23.5294 50.0666 23.5294C50.3461 23.5294 50.6227 23.5851 50.8803 23.6934C51.138 23.8017 51.3714 23.9603 51.567 24.1599L60.3292 32.5931C60.626 32.8727 60.9977 33.06 61.399 33.132C61.8003 33.2039 62.2139 33.1576 62.5893 32.9985C62.9647 32.8394 63.2857 32.5745 63.5131 32.236C63.7406 31.8976 63.8646 31.5003 63.8701 31.0925V16.597C63.8678 16.3224 63.811 16.0509 63.7028 15.7984C63.5946 15.546 63.4373 15.3176 63.24 15.1265L51.597 3.42206C51.4036 3.21866 51.1709 3.05671 50.9129 2.94605C50.655 2.83539 50.3773 2.77832 50.0966 2.77832C49.816 2.77832 49.5383 2.83539 49.2803 2.94605C49.0224 3.05671 48.7897 3.21866 48.5963 3.42206L36.8933 15.0365Z" fill="#D95767"/>
</svg>
